<svg width="381" height="64" viewBox="0 0 381 64" fill="none" xmlns="http://www.w3.org/2000/svg">
<path d="M96.1268 18.9433V11.1285H115.124V18.9433H111.627V13.9349H106.921V26.5638H103.467V13.9349H99.6241V18.9433H96.1268Z" fill="black"/>
<path d="M117.277 26.5638V11.1285H120.407V15.4461H126.97C128.236 15.4461 129.158 15.7627 129.733 16.3959C130.323 17.0148 130.618 17.8351 130.618 18.857V26.5638H127.488V19.2239C127.488 18.3604 127.056 17.9287 126.193 17.9287H120.407V26.5638H117.277Z" fill="black"/>
<path d="M138.577 26.6718C136.648 26.6718 135.144 26.1968 134.065 25.247C132.986 24.2827 132.446 22.8723 132.446 21.0157C132.446 19.1448 132.986 17.7344 134.065 16.7845C135.144 15.8203 136.648 15.3381 138.577 15.3381H143.974C145.24 15.3381 146.204 15.6404 146.867 16.2448C147.543 16.8349 147.881 17.684 147.881 18.7922C147.881 21.0517 146.579 22.1815 143.974 22.1815H135.814C136.116 23.5199 137.037 24.1892 138.577 24.1892H147.32V26.6718H138.577ZM138.577 17.8207C137.094 17.8207 136.181 18.4468 135.835 19.6989H143.823C144.11 19.6989 144.334 19.6125 144.492 19.4398C144.665 19.2671 144.751 19.0297 144.751 18.7274C144.751 18.123 144.441 17.8207 143.823 17.8207H138.577Z" fill="black"/>
<path d="M158.994 26.5638L157.267 11.1285H160.721L161.995 22.3974L166.291 19.0944V11.1285H169.745V19.116L173.997 22.3974L175.293 11.1285H178.747L177.02 26.5638H174.127L168.018 21.6202L161.887 26.5638H158.994Z" fill="black"/>
<path d="M186.39 26.6718C184.462 26.6718 182.958 26.1968 181.879 25.247C180.799 24.2827 180.26 22.8723 180.26 21.0157C180.26 19.1448 180.799 17.7344 181.879 16.7845C182.958 15.8203 184.462 15.3381 186.39 15.3381H191.787C193.054 15.3381 194.018 15.6404 194.68 16.2448C195.357 16.8349 195.695 17.684 195.695 18.7922C195.695 21.0517 194.392 22.1815 191.787 22.1815H183.627C183.929 23.5199 184.851 24.1892 186.39 24.1892H195.134V26.6718H186.39ZM186.39 17.8207C184.908 17.8207 183.994 18.4468 183.649 19.6989H191.636C191.924 19.6989 192.147 19.6125 192.306 19.4398C192.478 19.2671 192.565 19.0297 192.565 18.7274C192.565 18.123 192.255 17.8207 191.636 17.8207H186.39Z" fill="black"/>
<path d="M197.641 26.5638V11.1285H200.771V26.5638H197.641ZM198.181 26.5638V24.0812H205.629C206.564 24.0812 207.276 23.8294 207.766 23.3256C208.27 22.8075 208.521 22.0376 208.521 21.0157C208.521 19.9795 208.27 19.2096 207.766 18.7058C207.276 18.1877 206.564 17.9287 205.629 17.9287H198.397V15.4461H205.629C207.557 15.4461 209.061 15.921 210.14 16.8709C211.22 17.8207 211.76 19.2024 211.76 21.0157C211.76 22.8147 211.22 24.1892 210.14 25.139C209.061 26.0889 207.557 26.5638 205.629 26.5638H198.181Z" fill="black"/>
<path d="M213.166 26.5638V23.7574H225.039C225.586 23.7574 225.996 23.6063 226.27 23.3041C226.543 22.9874 226.68 22.5557 226.68 22.0088C226.68 21.4475 226.543 21.0085 226.27 20.6919C225.996 20.3753 225.586 20.217 225.039 20.217H215.195V17.4322H225.018C226.126 17.4322 226.68 16.8493 226.68 15.6835C226.68 14.5322 226.126 13.9565 225.018 13.9565H213.166V11.1501H225.665C227.162 11.1501 228.32 11.5243 229.141 12.2727C229.976 13.0067 230.393 14.0357 230.393 15.3597C230.393 16.0793 230.256 16.7629 229.983 17.4106C229.709 18.0438 229.256 18.5116 228.623 18.8138C229.256 19.1304 229.709 19.5981 229.983 20.217C230.256 20.8215 230.393 21.4907 230.393 22.2247C230.393 23.5343 229.976 24.5849 229.141 25.3765C228.32 26.168 227.162 26.5638 225.665 26.5638H213.166Z" fill="black"/>
<path d="M240.108 26.5638V11.1717L253.103 11.1285C254.816 11.1285 256.083 11.4883 256.903 12.2079C257.738 12.9131 258.155 13.9781 258.155 15.4029C258.155 16.8277 257.68 17.8711 256.73 18.5331C257.363 18.8785 257.831 19.3391 258.133 19.9148C258.436 20.476 258.587 21.2028 258.587 22.0951C258.587 23.5487 258.169 24.6569 257.335 25.4197C256.514 26.168 255.248 26.5422 253.535 26.5422L240.108 26.5638ZM252.693 13.8918H243.562V17.3458H252.693C254.003 17.3458 254.658 16.7557 254.658 15.5756C254.658 14.453 254.003 13.8918 252.693 13.8918ZM253.125 20.109H243.562V23.779H253.125C254.435 23.779 255.09 23.1601 255.09 21.9224C255.09 20.7135 254.435 20.109 253.125 20.109Z" fill="black"/>
<path d="M260.634 26.5638V11.1285H263.764V26.5638H260.634Z" fill="black"/>
<path d="M271.835 26.6718C269.907 26.6718 268.403 26.1968 267.323 25.247C266.244 24.2827 265.704 22.8723 265.704 21.0157C265.704 19.1448 266.244 17.7344 267.323 16.7845C268.403 15.8203 269.907 15.3381 271.835 15.3381H275.829C277.758 15.3381 279.262 15.8203 280.341 16.7845C281.42 17.7344 281.96 19.1448 281.96 21.0157C281.96 22.8723 281.42 24.2827 280.341 25.247C279.262 26.1968 277.758 26.6718 275.829 26.6718H271.835ZM271.835 24.1892H275.829C276.765 24.1892 277.477 23.9301 277.966 23.412C278.47 22.8939 278.722 22.0951 278.722 21.0157C278.722 19.922 278.47 19.116 277.966 18.5979C277.477 18.0798 276.765 17.8207 275.829 17.8207H271.835C270.9 17.8207 270.18 18.0798 269.677 18.5979C269.187 19.116 268.943 19.922 268.943 21.0157C268.943 22.0951 269.187 22.8939 269.677 23.412C270.18 23.9301 270.9 24.1892 271.835 24.1892Z" fill="black"/>
<path d="M289.607 26.6718C287.679 26.6718 286.175 26.1968 285.095 25.247C284.016 24.2827 283.476 22.8723 283.476 21.0157C283.476 19.1448 284.016 17.7344 285.095 16.7845C286.175 15.8203 287.679 15.3381 289.607 15.3381H296.839V17.8207H289.607C288.672 17.8207 287.952 18.0798 287.449 18.5979C286.959 19.116 286.715 19.922 286.715 21.0157C286.715 22.0951 286.959 22.8939 287.449 23.412C287.952 23.9301 288.672 24.1892 289.607 24.1892H297.055V26.6718H289.607Z" fill="black"/>
<path d="M298.665 26.5638V11.1285H301.796V15.4461H309.265C310.532 15.4461 311.496 15.7483 312.158 16.3528C312.834 16.9428 313.172 17.792 313.172 18.9001C313.172 20.7135 312.309 21.7929 310.582 22.1383L313.216 26.5638H309.697L307.149 22.2678H301.796V26.5638H298.665ZM309.114 17.9071H301.796V19.8068H309.114C309.402 19.8068 309.625 19.7205 309.783 19.5478C309.956 19.3751 310.042 19.1376 310.042 18.8354C310.042 18.2165 309.733 17.9071 309.114 17.9071Z" fill="black"/>
<path d="M320.64 26.6718C318.711 26.6718 317.207 26.1968 316.128 25.247C315.049 24.2827 314.509 22.8723 314.509 21.0157C314.509 19.1448 315.049 17.7344 316.128 16.7845C317.207 15.8203 318.711 15.3381 320.64 15.3381H327.872V17.8207H320.64C319.704 17.8207 318.985 18.0798 318.481 18.5979C317.992 19.116 317.747 19.922 317.747 21.0157C317.747 22.0951 317.992 22.8939 318.481 23.412C318.985 23.9301 319.704 24.1892 320.64 24.1892H328.088V26.6718H320.64Z" fill="black"/>
<path d="M329.698 26.5638V11.1285H332.828V15.4461H339.391C340.657 15.4461 341.578 15.7627 342.154 16.3959C342.744 17.0148 343.039 17.8351 343.039 18.857V26.5638H339.909V19.2239C339.909 18.3604 339.477 17.9287 338.614 17.9287H332.828V26.5638H329.698Z" fill="black"/>
<path d="M348.256 26.5638C347.09 26.5638 346.198 26.2688 345.579 25.6787C344.96 25.0886 344.651 24.2467 344.651 23.1529C344.651 22.0735 344.96 21.2388 345.579 20.6487C346.198 20.0587 347.09 19.7636 348.256 19.7636H356.546V19.2455C356.546 18.3676 356.114 17.9287 355.251 17.9287H346.097V15.4461H356.071C357.381 15.4461 358.309 15.7483 358.856 16.3528C359.403 16.9428 359.676 17.7776 359.676 18.857V26.5638H348.256ZM348.817 24.0812H356.546V22.2462H348.817C348.544 22.2462 348.328 22.3326 348.17 22.5053C348.026 22.6636 347.954 22.8795 347.954 23.1529C347.954 23.4264 348.026 23.6495 348.17 23.8222C348.328 23.9949 348.544 24.0812 348.817 24.0812Z" fill="black"/>
<path d="M362.059 26.5638V15.4461H365.189V26.5638H362.059ZM362.037 13.6111V11.1717H365.21V13.6111H362.037Z" fill="black"/>
<path d="M367.561 26.5638V15.4461H377.254C378.52 15.4461 379.442 15.7627 380.017 16.3959C380.607 17.0148 380.902 17.8351 380.902 18.857V26.5638H377.772V19.2239C377.772 18.3604 377.34 17.9287 376.477 17.9287H370.691V26.5638H367.561Z" fill="black"/>
<path d="M96.6665 52.4692V37.0339H109.598C111.195 37.0339 112.433 37.4369 113.311 38.2428C114.203 39.0488 114.649 40.2721 114.649 41.9128C114.649 43.5534 114.203 44.7768 113.311 45.5827C112.433 46.3886 111.195 46.7916 109.598 46.7916H100.121V52.4692H96.6665ZM109.187 39.8403H100.121V43.9636L109.187 43.9852C109.821 43.9852 110.303 43.8269 110.634 43.5103C110.979 43.1936 111.152 42.6611 111.152 41.9128C111.152 41.15 110.979 40.6175 110.634 40.3153C110.303 39.9986 109.821 39.8403 109.187 39.8403Z" fill="black"/>
<path d="M116.476 52.4692V41.3515H124.982C126.234 41.3515 127.155 41.6681 127.745 42.3013C128.335 42.9202 128.63 43.7405 128.63 44.7624V47.0723H125.456V45.1509C125.456 44.2874 125.025 43.8557 124.161 43.8557H119.649V52.4692H116.476Z" fill="black"/>
<path d="M133.305 52.4692C132.14 52.4692 131.247 52.1742 130.628 51.5841C130.01 50.9941 129.7 50.1521 129.7 49.0583C129.7 47.979 130.01 47.1442 130.628 46.5542C131.247 45.9641 132.14 45.6691 133.305 45.6691H141.595V45.1509C141.595 44.273 141.163 43.8341 140.3 43.8341H131.147V41.3515H141.12C142.43 41.3515 143.358 41.6537 143.905 42.2582C144.452 42.8482 144.725 43.683 144.725 44.7624V52.4692H133.305ZM133.867 49.9866H141.595V48.1517H133.867C133.593 48.1517 133.377 48.238 133.219 48.4107C133.075 48.569 133.003 48.7849 133.003 49.0583C133.003 49.3318 133.075 49.5549 133.219 49.7276C133.377 49.9003 133.593 49.9866 133.867 49.9866Z" fill="black"/>
<path d="M152.807 52.5772C150.879 52.5772 149.375 52.1022 148.295 51.1524C147.216 50.1881 146.676 48.7777 146.676 46.9211C146.676 45.0502 147.216 43.6398 148.295 42.6899C149.375 41.7257 150.879 41.2435 152.807 41.2435H160.039V43.7261H152.807C151.872 43.7261 151.152 43.9852 150.648 44.5033C150.159 45.0214 149.914 45.8274 149.914 46.9211C149.914 48.0005 150.159 48.7993 150.648 49.3174C151.152 49.8355 151.872 50.0946 152.807 50.0946H160.255V52.5772H152.807Z" fill="black"/>
<path d="M168.072 52.4692C166.82 52.4692 165.899 52.1598 165.309 51.5409C164.719 50.9077 164.424 50.0802 164.424 49.0583V43.8341H161.207V41.3515H164.424V37.9406H167.554V41.3515H172.174V43.8341H167.554V48.6698C167.554 49.5477 167.986 49.9866 168.85 49.9866H172.779V52.4692H168.072Z" fill="black"/>
<path d="M174.388 52.4692V41.3515H177.518V52.4692H174.388ZM174.366 39.5165V37.0771H177.54V39.5165H174.366Z" fill="black"/>
<path d="M185.589 52.5772C183.661 52.5772 182.157 52.1022 181.078 51.1524C179.998 50.1881 179.458 48.7777 179.458 46.9211C179.458 45.0502 179.998 43.6398 181.078 42.6899C182.157 41.7257 183.661 41.2435 185.589 41.2435H192.821V43.7261H185.589C184.654 43.7261 183.934 43.9852 183.431 44.5033C182.941 45.0214 182.697 45.8274 182.697 46.9211C182.697 48.0005 182.941 48.7993 183.431 49.3174C183.934 49.8355 184.654 50.0946 185.589 50.0946H193.037V52.5772H185.589Z" fill="black"/>
<path d="M200.347 52.5772C198.418 52.5772 196.914 52.1022 195.835 51.1524C194.755 50.1881 194.216 48.7777 194.216 46.9211C194.216 45.0502 194.755 43.6398 195.835 42.6899C196.914 41.7257 198.418 41.2435 200.347 41.2435H205.744C207.01 41.2435 207.974 41.5458 208.636 42.1502C209.313 42.7403 209.651 43.5894 209.651 44.6976C209.651 46.9571 208.349 48.0869 205.744 48.0869H197.583C197.886 49.4253 198.807 50.0946 200.347 50.0946H209.09V52.5772H200.347ZM200.347 43.7261C198.864 43.7261 197.95 44.3522 197.605 45.6043H205.593C205.88 45.6043 206.103 45.5179 206.262 45.3452C206.434 45.1725 206.521 44.9351 206.521 44.6328C206.521 44.0284 206.211 43.7261 205.593 43.7261H200.347Z" fill="black"/>
<path d="M77.8847 2.81723V63.2632" stroke="black" stroke-width="0.5"/>
<g clip-path="url(#clip0_26_5725)">
<path d="M60.6003 23.464L50.1835 29.7442H47.3022L57.4632 23.6115L1.56274 2.79357L1.5567 57.2785L6.38835 54.3577L8.95931 54.4566L0.170472 59.7732L0.168457 0.658447L60.6003 23.464Z" fill="black"/>
<path d="M7.87732 43.1023V30.8814H11.0165V43.1023H7.87732Z" fill="black"/>
<path d="M21.1734 26.7869H24.2824V43.1023H21.1633V41.4177C20.2889 42.5367 18.9873 43.0963 17.2585 43.0963C16.5446 43.1173 15.8352 42.9761 15.1834 42.6833C14.5316 42.3905 13.9543 41.9537 13.4948 41.4055C12.5263 40.2865 12.0421 38.8132 12.0421 36.9858C12.0421 35.1584 12.5263 33.6845 13.4948 32.5641C14.4646 31.445 15.7225 30.8855 17.2686 30.8855C18.9974 30.8855 20.299 31.445 21.1734 32.5641V26.7869ZM18.268 40.2319C19.1881 40.2319 19.9047 39.9289 20.4178 39.3229C20.9498 38.6675 21.2255 37.8403 21.1936 36.9959C21.1936 36.0384 20.935 35.2594 20.4178 34.6588C19.9007 34.0582 19.1841 33.7579 18.268 33.7579C17.3277 33.7579 16.5809 34.0616 16.0275 34.6689C15.474 35.2762 15.198 36.0553 15.1993 37.006C15.1658 37.8567 15.4627 38.6872 16.0275 39.3229C16.5849 39.9289 17.3317 40.2319 18.268 40.2319Z" fill="black"/>
<path d="M31.9892 43.0963L31.9489 43.1165C29.9032 43.1165 28.302 42.5664 27.1455 41.4661C25.989 40.3659 25.4067 38.8792 25.3986 37.006C25.3874 36.0847 25.57 35.1713 25.9346 34.3255C26.2482 33.5798 26.7311 32.9179 27.345 32.3924C27.918 31.9113 28.5706 31.5346 29.2732 31.2794C29.9612 31.0263 30.6882 30.8964 31.421 30.8956C33.2049 30.8956 34.6482 31.4517 35.751 32.5641C36.8538 33.6764 37.4052 35.2412 37.4052 37.2585C37.4076 37.6035 37.3874 37.9483 37.3448 38.2907H28.5982C28.7843 38.9361 29.1918 39.4948 29.7487 39.8683C30.3411 40.3006 31.1383 40.5167 32.1404 40.5167C32.6602 40.5174 33.1761 40.4251 33.6636 40.2441C34.038 40.1191 34.3944 39.9453 34.7234 39.7269L35.0559 39.4542L36.7322 41.052L36.5509 41.254C36.4905 41.3227 36.3011 41.4863 35.9847 41.751C35.6942 41.9969 35.3796 42.2128 35.0458 42.3953C34.6224 42.6093 34.1754 42.7727 33.714 42.8821C33.1503 43.0258 32.5708 43.0978 31.9892 43.0963ZM31.413 33.6266C30.5587 33.6266 29.8797 33.8831 29.376 34.3962C28.8872 34.8779 28.5991 35.5277 28.57 36.2142H34.1512C34.1459 35.536 33.882 34.8856 33.4138 34.3962C32.9356 33.8831 32.2686 33.6266 31.413 33.6266Z" fill="black"/>
<path d="M46.5265 43.1023L46.5063 41.5287C45.7676 42.567 44.5667 43.0828 42.9038 43.076C41.5605 43.076 40.4859 42.7589 39.68 42.1246C38.874 41.4904 38.4711 40.5867 38.4711 39.4138C38.4526 38.8658 38.5746 38.3221 38.8254 37.8348C39.0762 37.3475 39.4474 36.9328 39.9036 36.6303C40.8923 35.9534 42.0675 35.6038 43.2644 35.6304C44.3303 35.6318 45.3906 35.7849 46.4137 36.0849C46.454 34.3868 45.5808 33.537 43.7943 33.5357C42.4368 33.5602 41.0969 33.849 39.8492 34.3861L39.0795 32.0934C40.6879 31.3026 42.4543 30.8882 44.2457 30.8814C46.0604 30.8814 47.4036 31.3265 48.2754 32.2166C49.1472 33.1068 49.581 34.4588 49.577 36.2727V43.1023H46.5265ZM43.8024 40.8197L43.7923 40.8298C44.4582 40.8513 45.1141 40.6634 45.6682 40.2925C45.9156 40.1232 46.1153 39.8927 46.248 39.6235C46.3807 39.3542 46.4419 39.0552 46.4257 38.7553V37.9776C45.6677 37.7076 44.8688 37.5709 44.0643 37.5736C43.4514 37.5515 42.8442 37.6989 42.3094 37.9998C42.094 38.1119 41.9139 38.2817 41.789 38.4904C41.6641 38.699 41.5995 38.9382 41.6022 39.1815C41.5967 39.4176 41.6512 39.6511 41.7604 39.8603C41.8697 40.0695 42.0301 40.2474 42.2268 40.3773C42.6931 40.6859 43.244 40.8406 43.8024 40.8197Z" fill="black"/>
<path d="M55.9218 43.1771L55.9823 43.167C53.8975 43.167 52.1352 42.6404 50.6953 41.5873L51.8256 39.535C52.4236 39.9122 53.0722 40.2019 53.7518 40.3955C54.4276 40.6127 55.1317 40.7284 55.8412 40.7389C57.0663 40.7389 57.6781 40.3949 57.6768 39.7067C57.6731 39.5349 57.6235 39.3672 57.5332 39.2212C57.4428 39.0751 57.3149 38.9561 57.163 38.8765C56.7723 38.6463 56.3403 38.4954 55.8916 38.4321C55.4349 38.3567 54.8868 38.2389 54.2475 38.0786C53.6809 37.932 53.1244 37.7492 52.5812 37.5312C52.0578 37.3177 51.6135 36.9464 51.3098 36.4687C50.9596 35.9207 50.7839 35.2789 50.8061 34.6285C50.8061 33.4407 51.25 32.5237 52.1379 31.8773C53.0258 31.2309 54.146 30.907 55.4987 30.9057C57.2745 30.9057 58.7809 31.3204 60.018 32.15L59.0287 34.2629C57.9718 33.6465 56.7719 33.3191 55.5491 33.3135C54.4046 33.3135 53.8324 33.6643 53.8324 34.3659C53.8324 34.7443 54.0648 35.0271 54.5295 35.2143C55.0765 35.4265 55.6446 35.5796 56.224 35.6708C56.8977 35.7876 57.5648 35.9393 58.2228 36.1253C58.8896 36.3156 59.4814 36.7079 59.9173 37.2484C60.3821 37.8086 60.6144 38.5372 60.6144 39.434C60.6144 40.6137 60.1906 41.5341 59.3431 42.1954C58.4955 42.8566 57.3551 43.1838 55.9218 43.1771Z" fill="black"/>
<path d="M18.6065 58.2623L18.5763 61.1044H7.95996V58.5148L13.4102 53.8304C14.2161 53.1436 14.7534 52.5807 15.0221 52.1417C15.2932 51.697 15.4329 51.1843 15.425 50.6631C15.425 50.0026 15.2236 49.5016 14.8407 49.1562C14.424 48.8034 13.8907 48.6196 13.3457 48.6411C13.0632 48.6356 12.7826 48.6893 12.522 48.7989C12.2614 48.9085 12.0266 49.0715 11.8325 49.2774C11.3946 49.756 11.092 50.3432 10.9561 50.9782C10.7532 50.9297 9.69677 50.6463 7.78668 50.1278C8.07431 48.8857 8.76706 47.7754 9.75521 46.9726C10.7431 46.1317 12.0015 45.6782 13.2973 45.696C14.9307 45.696 16.2491 46.1673 17.2525 47.11C17.737 47.5446 18.1228 48.0784 18.3838 48.6754C18.6449 49.2723 18.7751 49.9185 18.7657 50.5702C18.7816 51.5467 18.5225 52.508 18.0182 53.3436C17.5279 54.1516 16.6199 55.0552 15.2941 56.0544L12.711 58.2764L18.6065 58.2623Z" fill="black"/>
<path d="M23.0574 61.1044H19.7973V45.9404H23.0574V61.1044Z" fill="black"/>
<path d="M36.0331 48.7724H31.7777V61.1044H28.4975V48.7724H24.2199V45.9445H36.0331V48.7724Z" fill="black"/>
<path d="M9.44688 29.8674C10.4807 29.8674 11.3187 29.0272 11.3187 27.9908C11.3187 26.9544 10.4807 26.1143 9.44688 26.1143C8.41311 26.1143 7.57507 26.9544 7.57507 27.9908C7.57507 29.0272 8.41311 29.8674 9.44688 29.8674Z" fill="black"/>
</g>
<defs>
<clipPath id="clip0_26_5725">
<rect width="60.446" height="60.446" fill="white" transform="translate(0.168457 0.658447)"/>
</clipPath>
</defs>
</svg>
