<svg width="17" height="13" viewBox="0 0 17 13" fill="none" xmlns="http://www.w3.org/2000/svg">
<path d="M3.75212 0.00201417H13.2548C13.36 0.00199954 13.4637 0.0268778 13.5574 0.0746153C13.6512 0.122353 13.7323 0.191595 13.7941 0.276681L16.3421 3.78068C16.3874 3.84303 16.4097 3.91915 16.4052 3.99609C16.4007 4.07303 16.3697 4.14604 16.3174 4.20268L8.74812 12.4027C8.7169 12.4365 8.67902 12.4635 8.63685 12.482C8.59469 12.5005 8.54915 12.51 8.50312 12.51C8.45708 12.51 8.41155 12.5005 8.36938 12.482C8.32721 12.4635 8.28933 12.4365 8.25812 12.4027L0.688784 4.20335C0.63652 4.1467 0.605499 4.0737 0.601002 3.99676C0.596504 3.91982 0.618808 3.84369 0.664117 3.78135L3.21278 0.277347C3.27464 0.192261 3.35575 0.123019 3.44948 0.0752819C3.54322 0.0275444 3.64692 0.00199954 3.75212 0.00201417Z" fill="#FF5C00"/>
</svg>
