<svg width="427" height="333" viewBox="0 0 427 333" fill="none" xmlns="http://www.w3.org/2000/svg">
<mask id="mask0_26_6291" style="mask-type:luminance" maskUnits="userSpaceOnUse" x="194" y="31" width="171" height="295">
<path d="M206.311 31.9074C206.311 31.9074 206.273 31.8834 206.25 31.8707C206.011 31.7578 205.763 31.7357 205.527 31.8675C192.538 39.1373 193.067 59.1484 196.414 77.399C198.127 86.7379 200.614 96.1233 203.123 105.479C204.407 106.161 205.676 106.875 206.907 107.614C212.726 111.079 218.378 115.118 222.875 120.224C223.712 121.175 222.876 122.909 221.535 122.443C216.493 120.683 211.379 119.035 206.204 117.662C206.513 119.219 206.773 120.775 206.933 122.32C207.496 127.796 206.484 132.711 205.84 137.68C205.12 143.273 205.167 148.592 207.091 154.833C207.658 156.674 208.347 158.488 209.106 160.291C209.817 160.443 210.527 160.604 211.236 160.772C217.819 162.347 224.423 164.522 230.229 168.06C231.306 168.72 231.029 170.619 229.606 170.575C224.439 170.399 219.24 170.351 214.044 170.547C214.42 171.267 214.788 171.985 215.158 172.695C217.029 176.3 218.834 179.942 220.604 183.595C226.98 185.155 233.345 187.302 238.97 190.73C240.047 191.389 239.761 193.287 238.355 193.247C233.965 193.1 229.55 193.042 225.146 193.145C228.863 201.065 232.515 209.014 236.368 216.885C239.711 223.715 243.138 231.218 247.555 237.403C250.711 241.816 254.821 244.762 258.85 247.373C263.255 250.223 267.52 252.971 271.091 257.683C275.211 263.13 276.232 270.494 277.682 276.619C278.255 279.042 278.98 281.376 279.902 283.647C284.828 285.091 289.651 286.986 294.025 289.645C295.102 290.305 294.825 292.204 293.41 292.162C290.451 292.061 287.474 292.007 284.494 292.012C287.274 296.059 290.493 299.744 293.685 303.306C299.869 310.206 306.282 318.859 314.14 319.969C321.549 321.01 327.214 316.451 334.152 315.989C343.059 315.397 353.72 319.423 362.811 325.455C363.761 326.082 364.694 325.292 364.008 324.034C357.759 312.442 351.511 300.851 345.272 289.252C330.723 262.262 316.184 235.265 301.635 208.274C285.081 177.543 268.525 146.821 251.962 116.089C239.676 93.2995 227.392 70.5017 215.114 47.7137C212.404 42.6785 209.686 37.6418 206.975 32.6147C206.782 32.2582 206.547 32.0366 206.307 31.9237L206.311 31.9074Z" fill="white"/>
</mask>
<g mask="url(#mask0_26_6291)">
<path d="M206.311 31.9074C206.311 31.9074 206.273 31.8834 206.25 31.8707C206.011 31.7578 205.763 31.7357 205.527 31.8676C192.538 39.1373 193.067 59.1484 196.414 77.399C198.127 86.7379 200.614 96.1233 203.123 105.479C204.407 106.161 205.676 106.875 206.907 107.614C212.726 111.079 218.378 115.118 222.875 120.224C223.712 121.175 222.876 122.909 221.535 122.443C216.493 120.683 211.379 119.035 206.204 117.662C206.513 119.219 206.773 120.775 206.933 122.32C207.496 127.796 206.484 132.711 205.84 137.68C205.12 143.273 205.167 148.592 207.091 154.833C207.658 156.674 208.347 158.488 209.106 160.291C209.817 160.443 210.527 160.604 211.236 160.772C217.819 162.347 224.423 164.522 230.229 168.06C231.306 168.72 231.029 170.619 229.606 170.575C224.439 170.399 219.24 170.351 214.044 170.547C214.42 171.267 214.788 171.985 215.158 172.695C217.029 176.3 218.834 179.942 220.604 183.595C226.98 185.155 233.345 187.302 238.97 190.73C240.047 191.389 239.761 193.287 238.355 193.247C233.965 193.1 229.55 193.042 225.146 193.145C228.863 201.065 232.515 209.014 236.368 216.885C239.711 223.715 243.138 231.218 247.555 237.403C250.711 241.816 254.821 244.762 258.85 247.373C263.255 250.223 267.52 252.971 271.091 257.683C275.211 263.13 276.232 270.494 277.682 276.619C278.255 279.042 278.98 281.376 279.902 283.647C284.828 285.091 289.651 286.986 294.025 289.645C295.102 290.305 294.825 292.204 293.41 292.162C290.451 292.061 287.474 292.007 284.494 292.012C287.274 296.059 290.493 299.744 293.685 303.306C299.869 310.206 306.282 318.859 314.14 319.969C321.549 321.01 327.214 316.451 334.152 315.989C343.059 315.397 353.72 319.423 362.811 325.455C363.761 326.082 364.694 325.292 364.008 324.034C357.759 312.442 351.511 300.851 345.272 289.252C330.723 262.262 316.184 235.265 301.635 208.274C285.081 177.543 268.525 146.821 251.962 116.089C239.676 93.2995 227.392 70.5017 215.114 47.7137C212.404 42.6785 209.686 37.6418 206.975 32.6147C206.782 32.2582 206.547 32.0366 206.307 31.9237L206.311 31.9074Z" fill="url(#paint0_linear_26_6291)"/>
<path style="mix-blend-mode:multiply" opacity="0.3" d="M174.436 86.3979C206.381 95.4044 237.06 108.226 265.83 124.79C275.37 130.285 283.876 115.454 274.305 109.945C244.335 92.6976 212.138 79.2756 178.869 69.8905C168.248 66.8908 163.824 83.3997 174.428 86.3964L174.436 86.3979Z" fill="url(#paint1_linear_26_6291)"/>
<path opacity="0.5" d="M178.268 141.372C214.679 144.691 249.178 158.131 283.778 169.057C294.302 172.383 298.694 155.868 288.21 152.549C252.079 141.138 216.393 127.741 178.378 124.276C167.376 123.274 167.391 140.377 178.269 141.364L178.268 141.372Z" fill="url(#paint2_linear_26_6291)"/>
<path opacity="0.5" d="M201.698 170.021C233.213 180.132 264.295 191.591 296.164 200.55C298.617 201.236 299.636 197.433 297.185 196.739C265.307 187.779 234.232 176.329 202.717 166.218C200.291 165.436 199.279 169.249 201.697 170.029L201.698 170.021Z" fill="url(#paint3_linear_26_6291)"/>
<path style="mix-blend-mode:multiply" opacity="0.3" d="M178.298 113.919C215.524 117.376 249.461 134.252 284.666 145.445C286.286 145.955 286.963 143.417 285.352 142.908C249.901 131.635 215.793 114.769 178.318 111.297C176.622 111.142 176.626 113.769 178.296 113.927L178.298 113.919Z" fill="url(#paint4_linear_26_6291)"/>
<path style="mix-blend-mode:multiply" opacity="0.3" d="M188.281 183.024C235.651 187.48 280.081 206.035 324.359 222.213C325.956 222.796 326.617 220.254 325.036 219.675C280.523 203.41 235.919 184.88 188.294 180.393C186.6 180.23 186.603 182.864 188.273 183.023L188.281 183.024Z" fill="url(#paint5_linear_26_6291)"/>
<path style="mix-blend-mode:multiply" opacity="0.3" d="M198.696 224.156C248.454 240.898 300.733 247.855 351.134 262.238C361.749 265.27 366.165 248.759 355.575 245.732C305.174 231.349 252.895 224.393 203.129 207.648C192.666 204.132 188.29 220.65 198.696 224.156Z" fill="url(#paint6_linear_26_6291)"/>
<path opacity="0.5" d="M257.1 275.465C284.531 282.981 313.032 284.532 340.963 289.34C351.735 291.191 356.274 274.704 345.396 272.833C317.465 268.025 288.956 266.472 261.532 258.958C250.895 256.048 246.464 272.547 257.1 275.465Z" fill="url(#paint7_linear_26_6291)"/>
<path opacity="0.5" d="M248.382 255.367C283.003 260.264 317.093 268.299 351.722 273.197C353.386 273.43 354.079 270.894 352.407 270.66C317.787 265.763 283.696 257.728 249.067 252.83C247.412 252.599 246.71 255.133 248.382 255.367Z" fill="#7D7B01"/>
<path d="M274.986 293.684C305.886 301.061 337.883 298.22 369.218 301.944C371.745 302.24 371.738 298.301 369.245 298.003C338.246 294.326 306.567 297.177 276.005 289.881C273.535 289.284 272.505 293.102 274.986 293.684Z" fill="url(#paint8_linear_26_6291)"/>
</g>
<mask id="mask1_26_6291" style="mask-type:luminance" maskUnits="userSpaceOnUse" x="202" y="31" width="187" height="295">
<path d="M357.534 210.366C356.812 208.411 356.349 206.513 356.04 204.645C353.549 207.604 351.147 210.63 348.807 213.677C347.954 214.802 346.299 213.813 346.471 212.558C347.418 205.822 349.923 199.34 352.877 193.246C353.609 191.745 354.383 190.243 355.211 188.768C354.945 185.747 354.369 182.675 353.137 179.604C352.664 178.42 352.146 177.253 351.587 176.078C347.521 181.606 343.873 187.458 340.425 193.364C339.713 194.584 337.95 193.81 337.971 192.552C338.071 185.755 339.736 179.003 341.901 172.591C342.826 169.856 343.895 167.114 345.135 164.447C344.039 162.648 342.946 160.874 341.882 159.132C333.393 145.161 324.274 131.634 316.095 117.453C312.843 111.818 309.557 105.924 305.399 101.025C303.103 98.324 300.749 96.2346 298.26 94.5064C296.597 99.7014 295.194 104.988 293.943 110.27C293.614 111.646 291.705 111.417 291.355 110.206C289.478 103.672 289.118 96.7282 289.339 89.9623C289.339 89.8699 289.34 89.7775 289.349 89.6866C285.548 87.9525 281.693 86.2335 278.106 83.3707C274.035 80.1377 270.43 75.9586 266.782 71.9648C259.987 64.5188 253.164 57.0503 245.941 50.3054C232.382 37.6407 215.806 26.4123 202.678 33.437C202.443 33.5688 202.325 33.7904 202.292 34.0533C202.287 34.0777 202.282 34.102 202.278 34.1264C202.243 34.3975 202.301 34.7115 202.494 35.068C205.27 40.0653 208.053 45.0641 210.829 50.0614C223.407 72.6879 235.984 95.3224 248.562 117.949C265.519 148.462 282.479 178.966 299.436 209.479C314.332 236.283 329.229 263.08 344.125 289.884C350.525 301.387 356.914 312.904 363.314 324.407C364.016 325.668 365.179 325.309 365.16 324.169C364.985 313.255 367.344 302.109 372.633 294.929C376.762 289.336 383.667 287.017 386.773 280.212C390.074 272.998 386.245 262.927 383.771 254.007C382.286 248.684 380.69 243.238 378.28 238.083C376.129 233.474 373.32 229.666 369.918 226.148C365.545 221.629 359.885 216.797 357.521 210.389L357.534 210.366Z" fill="white"/>
</mask>
<g mask="url(#mask1_26_6291)">
<path d="M357.534 210.366C356.812 208.411 356.349 206.513 356.04 204.645C353.549 207.604 351.147 210.63 348.807 213.677C347.954 214.802 346.299 213.813 346.471 212.558C347.418 205.822 349.923 199.34 352.877 193.246C353.609 191.745 354.383 190.243 355.211 188.768C354.945 185.747 354.369 182.675 353.137 179.604C352.664 178.42 352.146 177.253 351.587 176.078C347.521 181.606 343.873 187.458 340.425 193.364C339.713 194.584 337.95 193.81 337.971 192.552C338.071 185.755 339.736 179.003 341.901 172.591C342.826 169.856 343.895 167.114 345.135 164.447C344.039 162.648 342.946 160.874 341.882 159.132C333.393 145.161 324.274 131.634 316.095 117.453C312.843 111.818 309.557 105.924 305.399 101.025C303.103 98.324 300.749 96.2346 298.26 94.5064C296.597 99.7014 295.194 104.988 293.943 110.27C293.614 111.646 291.705 111.417 291.355 110.206C289.478 103.672 289.118 96.7281 289.339 89.9623C289.339 89.8699 289.34 89.7775 289.349 89.6866C285.548 87.9525 281.693 86.2335 278.106 83.3706C274.035 80.1377 270.43 75.9586 266.782 71.9647C259.987 64.5187 253.164 57.0503 245.941 50.3054C232.382 37.6407 215.806 26.4123 202.678 33.437C202.443 33.5688 202.325 33.7904 202.292 34.0533C202.287 34.0777 202.282 34.102 202.278 34.1264C202.243 34.3975 202.301 34.7115 202.494 35.068C205.27 40.0653 208.053 45.0641 210.829 50.0614C223.407 72.6878 235.984 95.3224 248.562 117.949C265.519 148.462 282.479 178.966 299.436 209.479C314.332 236.283 329.229 263.08 344.125 289.884C350.525 301.387 356.914 312.904 363.314 324.407C364.016 325.668 365.179 325.309 365.16 324.169C364.984 313.255 367.344 302.109 372.633 294.929C376.762 289.336 383.667 287.017 386.773 280.212C390.074 272.998 386.245 262.927 383.771 254.007C382.286 248.684 380.69 243.238 378.28 238.083C376.129 233.474 373.32 229.666 369.918 226.148C365.545 221.629 359.885 216.797 357.521 210.389L357.534 210.366Z" fill="url(#paint9_linear_26_6291)"/>
<path style="mix-blend-mode:multiply" opacity="0.3" d="M271.859 30.259C263.644 62.4216 259.348 95.3898 259.259 128.587C259.231 139.597 242.129 139.52 242.162 128.485C242.261 93.9098 246.79 59.3198 255.351 25.8263C258.086 15.1385 274.582 19.5858 271.859 30.259Z" fill="url(#paint10_linear_26_6291)"/>
<path style="mix-blend-mode:multiply" opacity="0.3" d="M314.499 87.1405C299.117 120.302 293.449 156.897 285.558 192.31C283.159 203.087 266.661 198.606 269.052 187.869C277.292 150.89 283.588 113.296 299.654 78.6654C304.306 68.6459 319.097 77.2284 314.499 87.1405Z" fill="url(#paint11_linear_26_6291)"/>
<path d="M322.579 122.374C315.527 154.708 309.855 187.346 301.631 219.423C301.002 221.887 297.192 220.858 297.82 218.402C306.052 186.327 311.714 153.695 318.768 121.354C319.31 118.865 323.118 119.902 322.579 122.374Z" fill="url(#paint12_linear_26_6291)"/>
<path d="M293.73 47.3938C278.057 81.3332 275.646 119.163 267.679 155.235C267.313 156.89 264.776 156.205 265.142 154.55C273.165 118.227 275.669 80.2639 291.455 46.0852C292.168 44.5466 294.442 45.8634 293.739 47.3873L293.73 47.3938Z" fill="url(#paint13_linear_26_6291)"/>
<path d="M343.62 101.735C323.721 144.959 317.501 192.708 309.306 239.121C309.013 240.79 306.478 240.097 306.769 238.436C315.014 191.763 321.334 143.882 341.336 100.425C342.044 98.8767 344.324 100.203 343.621 101.727L343.62 101.735Z" fill="url(#paint14_linear_26_6291)"/>
<path style="mix-blend-mode:multiply" opacity="0.3" d="M378.883 120.311C368.425 171.754 348.234 220.485 335.413 271.301C332.709 282.003 316.214 277.548 318.907 266.86C331.728 216.044 351.919 167.313 362.377 115.87C364.574 105.046 381.067 109.552 378.883 120.311Z" fill="url(#paint15_linear_26_6291)"/>
<path opacity="0.7" d="M378.489 222.9C371.237 250.407 358.296 275.838 348.451 302.422C344.654 312.68 328.113 308.334 331.944 297.989C341.789 271.405 354.731 245.967 361.982 218.467C364.796 207.803 381.294 212.242 378.489 222.9Z" fill="url(#paint16_linear_26_6291)"/>
<path style="mix-blend-mode:multiply" opacity="0.3" d="M370.684 190.37C357.566 222.784 347.426 256.305 334.299 288.719C333.668 290.265 331.126 289.604 331.762 288.033C344.881 255.618 355.021 222.098 368.147 189.684C368.772 188.129 371.322 188.791 370.684 190.37Z" fill="url(#paint17_linear_26_6291)"/>
<path opacity="0.5" d="M390.824 235.937C381.718 266.373 363.217 292.63 350.727 321.613C349.718 323.954 346.311 321.958 347.297 319.655C359.658 290.992 378.006 265.01 387.013 234.917C387.738 232.48 391.549 233.501 390.824 235.937Z" fill="url(#paint18_linear_26_6291)"/>
<path style="mix-blend-mode:multiply" d="M378.349 214.925C363.47 241.829 306.442 238.772 250.982 208.102C195.507 177.42 162.601 130.749 177.481 103.845C192.36 76.9413 249.387 79.9976 304.862 110.68C360.331 141.352 393.227 188.029 378.348 214.933L378.349 214.925Z" fill="url(#paint19_radial_26_6291)"/>
</g>
<mask id="mask2_26_6291" style="mask-type:luminance" maskUnits="userSpaceOnUse" x="32" y="86" width="296" height="185">
<path d="M35.6028 86.2262C35.6028 86.2262 35.5509 86.2331 35.5331 86.2382C35.2741 86.2729 35.0513 86.382 34.9206 86.6263C27.9541 99.7814 39.2542 116.307 51.9793 129.815C58.4884 136.727 65.6668 143.261 72.8515 149.763C74.3062 149.637 75.7533 149.55 77.194 149.497C83.9556 149.254 90.8959 149.574 97.4431 151.428C98.6573 151.769 98.8985 153.683 97.5234 154.01C92.3356 155.268 87.1474 156.661 82.0442 158.314C83.1489 159.45 84.2133 160.621 85.1858 161.833C88.6329 166.133 90.4442 170.804 92.611 175.332C95.0407 180.423 97.9653 184.86 102.963 189.06C104.435 190.3 106 191.448 107.617 192.547C108.297 192.29 108.984 192.042 109.663 191.792C116.049 189.542 122.77 187.793 129.571 187.608C130.84 187.572 131.624 189.329 130.416 190.058C125.981 192.713 121.58 195.494 117.326 198.478C118.031 198.882 118.73 199.276 119.428 199.678C122.956 201.697 126.45 203.768 129.919 205.876C136.126 203.726 142.634 202.08 149.214 201.903C150.483 201.867 151.268 203.624 150.062 204.345C146.3 206.599 142.554 208.948 138.907 211.434C146.33 216.072 153.715 220.769 161.211 225.286C167.727 229.203 174.67 233.656 181.745 236.452C186.792 238.449 191.838 238.686 196.642 238.693C201.892 238.7 206.968 238.691 212.516 240.707C218.938 243.042 223.788 248.678 228.327 253.035C230.128 254.759 232 256.327 234.004 257.735C238.927 256.275 244.004 255.248 249.121 255.112C250.39 255.076 251.182 256.835 249.968 257.554C247.43 259.082 244.894 260.644 242.398 262.263C246.927 264.153 251.634 265.504 256.25 266.762C265.184 269.205 275.269 272.986 282.476 269.655C289.26 266.513 291.544 259.602 297.132 255.449C304.29 250.123 315.427 247.718 326.342 247.845C327.484 247.861 327.833 246.69 326.577 245.996C315.037 239.649 303.506 233.303 291.966 226.956C265.102 212.177 238.238 197.398 211.365 182.617C180.784 165.792 150.203 148.967 119.623 132.142C96.9394 119.666 74.2498 107.18 51.5667 94.704C46.5546 91.9482 41.544 89.1842 36.54 86.43C36.1816 86.2355 35.8731 86.1767 35.6059 86.2099L35.6028 86.2262Z" fill="white"/>
</mask>
<g mask="url(#mask2_26_6291)">
<path d="M35.6028 86.2262C35.6028 86.2262 35.5509 86.2331 35.5331 86.2382C35.2741 86.2729 35.0513 86.382 34.9206 86.6263C27.9541 99.7814 39.2542 116.307 51.9793 129.815C58.4884 136.727 65.6668 143.261 72.8515 149.763C74.3062 149.637 75.7533 149.55 77.194 149.497C83.9556 149.254 90.8959 149.574 97.4431 151.428C98.6573 151.769 98.8985 153.683 97.5234 154.01C92.3356 155.268 87.1474 156.661 82.0442 158.314C83.1489 159.45 84.2133 160.621 85.1858 161.833C88.6329 166.133 90.4442 170.804 92.611 175.332C95.0407 180.423 97.9653 184.86 102.963 189.06C104.435 190.3 106 191.448 107.617 192.547C108.297 192.29 108.984 192.042 109.663 191.792C116.049 189.542 122.77 187.793 129.571 187.608C130.84 187.572 131.624 189.329 130.416 190.058C125.981 192.713 121.58 195.494 117.326 198.478C118.031 198.882 118.73 199.276 119.428 199.678C122.956 201.697 126.45 203.768 129.919 205.876C136.126 203.726 142.634 202.08 149.214 201.903C150.483 201.867 151.268 203.624 150.062 204.345C146.3 206.599 142.554 208.948 138.907 211.434C146.33 216.072 153.715 220.769 161.211 225.286C167.727 229.203 174.67 233.656 181.745 236.452C186.792 238.449 191.838 238.686 196.642 238.693C201.892 238.7 206.968 238.691 212.516 240.707C218.938 243.042 223.788 248.678 228.327 253.035C230.128 254.759 232 256.327 234.004 257.735C238.927 256.275 244.004 255.248 249.121 255.112C250.39 255.076 251.182 256.835 249.968 257.554C247.43 259.082 244.894 260.644 242.398 262.263C246.927 264.153 251.634 265.504 256.25 266.762C265.184 269.205 275.269 272.986 282.476 269.655C289.26 266.513 291.544 259.602 297.132 255.449C304.29 250.123 315.427 247.718 326.342 247.845C327.484 247.861 327.833 246.69 326.577 245.996C315.037 239.649 303.506 233.303 291.966 226.956C265.102 212.177 238.238 197.398 211.365 182.617C180.784 165.792 150.203 148.967 119.623 132.142C96.9394 119.666 74.2498 107.18 51.5667 94.704C46.5546 91.9482 41.544 89.1842 36.54 86.43C36.1816 86.2355 35.8731 86.1767 35.6059 86.2099L35.6028 86.2262Z" fill="url(#paint20_linear_26_6291)"/>
<path style="mix-blend-mode:multiply" opacity="0.3" d="M38.3975 149.291C70.1155 139.523 102.85 133.65 136.002 131.947C146.998 131.383 146.094 114.313 135.071 114.881C100.535 116.648 66.2152 122.85 33.1746 133.023C22.6257 136.272 27.8663 152.536 38.4056 149.293L38.3975 149.291Z" fill="url(#paint21_linear_26_6291)"/>
<path opacity="0.5" d="M71.4498 193.381C103.833 176.41 140.104 168.981 175.097 159.382C185.743 156.462 180.468 140.201 169.866 143.112C133.329 153.132 96.0784 161.241 62.2637 178.966C52.476 184.094 61.7735 198.455 71.4498 193.381Z" fill="url(#paint22_linear_26_6291)"/>
<path opacity="0.5" d="M106.674 204.738C138.633 196.134 170.956 188.887 202.59 179.119C205.022 178.371 203.818 174.616 201.379 175.363C169.744 185.139 137.422 192.377 105.462 200.989C103.005 201.649 104.216 205.405 106.665 204.744L106.674 204.738Z" fill="url(#paint23_linear_26_6291)"/>
<path style="mix-blend-mode:multiply" opacity="0.3" d="M56.5752 170.309C89.7113 153.009 127.386 148.768 163.03 139.066C164.671 138.621 163.86 136.119 162.227 136.565C126.334 146.338 88.5389 150.682 55.1624 168.096C53.6569 168.886 55.0876 171.094 56.5737 170.317L56.5752 170.309Z" fill="url(#paint24_linear_26_6291)"/>
<path style="mix-blend-mode:multiply" opacity="0.3" d="M102.458 222.936C144.671 200.97 192.057 192.445 238.023 182.008C239.676 181.633 238.857 179.129 237.22 179.507C191.008 189.998 143.483 198.64 101.047 220.714C99.5333 221.503 100.964 223.711 102.458 222.936Z" fill="url(#paint25_linear_26_6291)"/>
<path style="mix-blend-mode:multiply" opacity="0.3" d="M133.532 251.838C184.41 238.895 232.106 216.375 282.24 201.111C292.799 197.897 287.55 181.632 277.009 184.841C226.873 200.113 179.177 222.633 128.299 235.576C117.598 238.3 122.9 254.55 133.53 251.846L133.532 251.838Z" fill="url(#paint26_linear_26_6291)"/>
<path opacity="0.5" d="M210.428 263.241C237.551 254.667 262.329 240.512 288.397 229.39C298.455 225.096 293.315 208.792 283.166 213.12C257.098 224.242 232.312 238.395 205.197 246.971C194.676 250.293 199.915 266.564 210.428 263.241Z" fill="url(#paint27_linear_26_6291)"/>
<path opacity="0.5" d="M192.201 251.092C223.946 236.414 256.933 224.665 288.676 209.995C290.198 209.293 289.407 206.777 287.873 207.495C256.13 222.165 223.141 233.921 191.398 248.591C189.884 249.296 190.667 251.81 192.201 251.092Z" fill="#7D7B01"/>
<path d="M235.339 268.837C265.29 258.269 290.63 238.516 318.974 224.638C321.258 223.516 319.112 220.204 316.856 221.314C288.817 235.049 263.761 254.637 234.134 265.09C231.736 265.929 232.937 269.692 235.337 268.845L235.339 268.837Z" fill="url(#paint28_linear_26_6291)"/>
</g>
<mask id="mask3_26_6291" style="mask-type:luminance" maskUnits="userSpaceOnUse" x="33" y="78" width="295" height="169">
<path d="M259.471 154.058C257.808 152.807 256.388 151.468 255.116 150.064C254.629 153.901 254.251 157.742 253.942 161.571C253.833 162.981 251.909 163.052 251.38 161.899C248.525 155.726 247.103 148.925 246.28 142.204C246.082 140.551 245.915 138.861 245.808 137.174C243.941 134.782 241.79 132.513 239.091 130.601C238.053 129.865 236.975 129.163 235.876 128.483C235.463 135.33 235.57 142.234 235.885 149.059C235.945 150.468 234.051 150.78 233.382 149.702C229.775 143.94 227.51 137.366 225.849 130.805C225.145 128.003 224.55 125.121 224.144 122.217C222.249 121.3 220.366 120.403 218.525 119.513C203.818 112.386 188.809 105.967 174.251 98.4973C168.464 95.5265 162.503 92.3627 156.353 90.5008C152.955 89.4748 149.848 89.0005 146.812 88.9018C148.232 94.1708 149.926 99.3661 151.737 104.482C152.206 105.817 150.479 106.666 149.528 105.829C144.396 101.359 140.329 95.7199 136.849 89.9151C136.804 89.8393 136.753 89.7539 136.709 89.6781C132.571 90.2865 128.408 90.9324 123.832 90.4813C118.653 89.9741 113.369 88.4205 108.128 87.0432C98.3759 84.4782 88.6006 81.9004 78.8686 80.1556C60.6013 76.877 40.5896 76.4386 33.3722 89.4533C33.243 89.6896 33.2616 89.9456 33.3853 90.1795C33.3984 90.1989 33.4035 90.2166 33.4151 90.2441C33.5307 90.4765 33.7452 90.7194 34.1052 90.9058C39.1475 93.5916 44.1963 96.287 49.2451 98.9825C72.086 111.16 94.9335 123.348 117.781 135.536C148.582 151.957 179.381 168.386 210.182 184.807C237.24 199.236 264.297 213.665 291.354 228.093C302.973 234.287 314.591 240.49 326.203 246.674C327.471 247.353 328.255 246.417 327.627 245.473C321.556 236.397 317.491 225.752 318.034 216.851C318.466 209.907 323.008 204.217 321.927 196.816C320.789 188.967 312.109 182.584 305.185 176.434C301.053 172.769 296.753 169.063 291.936 166.033C287.629 163.328 283.203 161.651 278.439 160.55C272.306 159.129 264.938 158.138 259.475 154.042L259.471 154.058Z" fill="white"/>
</mask>
<g mask="url(#mask3_26_6291)">
<path d="M259.471 154.058C257.808 152.807 256.388 151.468 255.116 150.064C254.629 153.901 254.251 157.742 253.942 161.571C253.833 162.981 251.909 163.052 251.38 161.899C248.525 155.726 247.103 148.925 246.28 142.204C246.082 140.551 245.915 138.861 245.808 137.174C243.941 134.782 241.79 132.513 239.091 130.601C238.053 129.865 236.975 129.163 235.876 128.483C235.463 135.33 235.57 142.234 235.885 149.059C235.945 150.468 234.051 150.78 233.381 149.702C229.775 143.94 227.51 137.366 225.849 130.805C225.145 128.003 224.55 125.121 224.144 122.217C222.249 121.3 220.366 120.403 218.525 119.513C203.818 112.386 188.809 105.967 174.251 98.4973C168.464 95.5265 162.503 92.3627 156.353 90.5008C152.955 89.4748 149.848 89.0005 146.812 88.9018C148.232 94.1708 149.926 99.3661 151.737 104.482C152.206 105.817 150.479 106.666 149.528 105.829C144.396 101.359 140.329 95.7199 136.849 89.9151C136.804 89.8393 136.753 89.7539 136.709 89.6781C132.571 90.2865 128.408 90.9324 123.832 90.4813C118.653 89.9741 113.369 88.4205 108.128 87.0432C98.3759 84.4782 88.6006 81.9004 78.8686 80.1556C60.6013 76.877 40.5896 76.4386 33.3722 89.4533C33.243 89.6896 33.2615 89.9456 33.3853 90.1795C33.3984 90.1989 33.4034 90.2166 33.415 90.2441C33.5306 90.4765 33.7452 90.7194 34.1052 90.9058C39.1475 93.5916 44.1963 96.287 49.2451 98.9825C72.086 111.16 94.9335 123.348 117.781 135.536C148.582 151.957 179.381 168.386 210.182 184.807C237.24 199.236 264.297 213.665 291.354 228.093C302.973 234.287 314.591 240.49 326.203 246.674C327.471 247.353 328.255 246.417 327.627 245.473C321.556 236.397 317.491 225.752 318.034 216.851C318.465 209.907 323.008 204.217 321.927 196.816C320.789 188.967 312.109 182.584 305.185 176.434C301.053 172.769 296.753 169.063 291.936 166.033C287.629 163.328 283.203 161.651 278.439 160.55C272.306 159.129 264.938 158.138 259.474 154.042L259.471 154.058Z" fill="url(#paint29_linear_26_6291)"/>
<path style="mix-blend-mode:multiply" opacity="0.3" d="M89.762 49.2607C100.31 80.7317 114.599 110.761 132.537 138.692C138.487 147.963 124.086 157.169 118.122 147.878C99.4394 118.779 84.4798 87.2751 73.4919 54.4917C69.9821 44.0278 86.2588 38.8065 89.762 49.2607Z" fill="url(#paint30_linear_26_6291)"/>
<path style="mix-blend-mode:multiply" opacity="0.3" d="M156.443 73.9066C161.519 110.116 176.619 143.927 189.206 177.949C193.039 188.307 176.752 193.492 172.936 183.18C159.788 147.646 144.686 112.648 139.385 74.8388C137.852 63.8932 154.937 63.084 156.451 73.9082L156.443 73.9066Z" fill="url(#paint31_linear_26_6291)"/>
<path d="M182.355 99.1157C193.98 130.102 206.928 160.591 217.42 192.001C218.23 194.419 214.467 195.621 213.665 193.204C203.173 161.794 190.223 131.313 178.6 100.319C177.7 97.9341 181.461 96.7406 182.355 99.1157Z" fill="url(#paint32_linear_26_6291)"/>
<path d="M117.437 51.7903C122.689 88.7992 141.192 121.887 154.068 156.511C154.656 158.104 152.157 158.899 151.567 157.314C138.593 122.452 120.095 89.2054 114.81 51.9294C114.576 50.2438 117.2 50.121 117.437 51.7903Z" fill="url(#paint33_linear_26_6291)"/>
<path d="M188.826 70.3655C195.57 117.471 216.252 160.945 234.558 204.388C235.219 205.953 232.704 206.745 232.057 205.191C213.652 161.519 192.98 117.861 186.207 70.5061C185.965 68.819 188.597 68.6977 188.836 70.3589L188.826 70.3655Z" fill="url(#paint34_linear_26_6291)"/>
<path style="mix-blend-mode:multiply" opacity="0.3" d="M228.529 66.8306C247.658 115.715 257.134 167.607 273.948 217.245C277.485 227.698 261.21 232.911 257.678 222.476C240.873 172.832 231.388 120.946 212.259 72.0616C208.235 61.7775 224.535 56.6111 228.529 66.8306Z" fill="url(#paint35_linear_26_6291)"/>
<path opacity="0.7" d="M283.867 153.22C292.701 180.258 295.632 208.645 301.787 236.317C304.162 246.994 287.909 252.312 285.517 241.548C279.36 213.884 276.431 185.489 267.597 158.451C264.166 147.968 280.444 142.739 283.867 153.22Z" fill="url(#paint36_linear_26_6291)"/>
<path style="mix-blend-mode:multiply" opacity="0.3" d="M259.663 130.129C266.23 164.476 275.906 198.137 282.472 232.485C282.79 234.128 280.285 234.955 279.972 233.288C273.405 198.94 263.729 165.279 257.163 130.931C256.844 129.288 259.35 128.462 259.663 130.129Z" fill="url(#paint37_linear_26_6291)"/>
<path opacity="0.5" d="M301.3 157.475C310.164 187.978 308.878 220.08 314.115 251.204C314.536 253.716 310.589 253.898 310.177 251.421C305.002 220.637 306.318 188.86 297.551 158.688C296.838 156.246 300.595 155.035 301.308 157.477L301.3 157.475Z" fill="url(#paint38_linear_26_6291)"/>
</g>
<path style="mix-blend-mode:multiply" d="M220.045 163.813C215.948 185.315 230.054 206.062 251.557 210.159C273.06 214.256 293.806 200.15 297.903 178.647C302 157.145 287.894 136.398 266.391 132.301C244.889 128.204 224.142 142.31 220.045 163.813Z" fill="url(#paint39_radial_26_6291)"/>
<path d="M273.24 142.339C275.828 138.12 274.823 132.795 270.995 130.45C267.167 128.105 261.97 129.631 259.382 133.85C256.794 138.07 254.383 157.571 254.383 157.571C254.383 157.571 270.652 146.559 273.24 142.339Z" fill="url(#paint40_linear_26_6291)"/>
<path d="M278.492 160.136C283.306 158.983 286.355 154.507 285.31 150.142C284.265 145.778 279.509 143.18 274.695 144.333C269.88 145.486 254.383 157.571 254.383 157.571C254.383 157.571 273.677 161.289 278.483 160.135L278.492 160.136Z" fill="url(#paint41_linear_26_6291)"/>
<path d="M269.613 176.436C273.833 179.024 279.157 178.019 281.502 174.191C283.847 170.363 282.33 165.168 278.102 162.578C273.883 159.99 254.381 157.579 254.381 157.579C254.381 157.579 265.394 173.848 269.613 176.436Z" fill="url(#paint42_linear_26_6291)"/>
<path d="M251.818 181.679C252.97 186.494 257.447 189.543 261.812 188.498C266.176 187.453 268.774 182.697 267.621 177.883C266.468 173.068 254.383 157.571 254.383 157.571C254.383 157.571 250.665 176.865 251.818 181.679Z" fill="url(#paint43_linear_26_6291)"/>
<path d="M235.524 172.811C232.936 177.03 233.941 182.355 237.77 184.7C241.598 187.045 246.794 185.519 249.382 181.3C251.97 177.08 254.381 157.579 254.381 157.579C254.381 157.579 238.104 168.59 235.524 172.811Z" fill="url(#paint44_linear_26_6291)"/>
<path d="M230.273 155.014C225.459 156.166 222.409 160.643 223.454 165.008C224.499 169.372 229.255 171.97 234.07 170.817C238.884 169.664 254.381 157.579 254.381 157.579C254.381 157.579 235.087 153.861 230.273 155.014Z" fill="url(#paint45_linear_26_6291)"/>
<path d="M239.151 138.714C234.932 136.126 229.607 137.131 227.262 140.959C224.917 144.787 226.443 149.984 230.662 152.572C234.882 155.16 254.383 157.571 254.383 157.571C254.383 157.571 243.372 141.293 239.151 138.714Z" fill="url(#paint46_linear_26_6291)"/>
<path d="M256.947 133.47C255.794 128.656 251.317 125.607 246.953 126.652C242.588 127.697 239.991 132.453 241.144 137.267C242.296 142.082 254.381 157.579 254.381 157.579C254.381 157.579 258.1 138.285 256.947 133.47Z" fill="url(#paint47_linear_26_6291)"/>
<path d="M252.27 168.663C246.148 167.497 242.131 161.589 243.297 155.467C244.464 149.345 250.372 145.328 256.493 146.495C262.615 147.661 266.632 153.569 265.466 159.691C264.299 165.813 258.391 169.83 252.27 168.663Z" fill="url(#paint48_linear_26_6291)"/>
<path style="mix-blend-mode:multiply" opacity="0.5" d="M250.582 164.446C256.705 165.612 262.612 161.596 263.78 155.465C264.048 154.06 264.035 152.669 263.791 151.344C265.359 153.713 266.041 156.67 265.467 159.683C264.301 165.805 258.394 169.822 252.271 168.655C247.553 167.756 244.097 164.035 243.289 159.572C244.91 162.018 247.475 163.837 250.585 164.429L250.582 164.446Z" fill="url(#paint49_linear_26_6291)"/>
<defs>
<linearGradient id="paint0_linear_26_6291" x1="401.147" y1="232.17" x2="159.577" y2="136.197" gradientUnits="userSpaceOnUse">
<stop stop-color="#3C6C00"/>
<stop offset="1" stop-color="#90C44D"/>
</linearGradient>
<linearGradient id="paint1_linear_26_6291" x1="239.179" y1="14.9526" x2="226.972" y2="79.022" gradientUnits="userSpaceOnUse">
<stop stop-color="#90C44D"/>
<stop offset="1" stop-color="#3C6C00"/>
</linearGradient>
<linearGradient id="paint2_linear_26_6291" x1="291.207" y1="170.24" x2="172.938" y2="123.253" gradientUnits="userSpaceOnUse">
<stop stop-color="#133C00"/>
<stop offset="0.99" stop-color="#358500"/>
</linearGradient>
<linearGradient id="paint3_linear_26_6291" x1="297.26" y1="202.424" x2="201.631" y2="164.432" gradientUnits="userSpaceOnUse">
<stop stop-color="#133C00"/>
<stop offset="0.99" stop-color="#358500"/>
</linearGradient>
<linearGradient id="paint4_linear_26_6291" x1="230.364" y1="135.107" x2="233.061" y2="120.953" gradientUnits="userSpaceOnUse">
<stop stop-color="#90C44D"/>
<stop offset="1" stop-color="#3C6C00"/>
</linearGradient>
<linearGradient id="paint5_linear_26_6291" x1="255.008" y1="209.017" x2="258.148" y2="192.541" gradientUnits="userSpaceOnUse">
<stop stop-color="#90C44D"/>
<stop offset="1" stop-color="#3C6C00"/>
</linearGradient>
<linearGradient id="paint6_linear_26_6291" x1="274.73" y1="247.722" x2="279.607" y2="222.127" gradientUnits="userSpaceOnUse">
<stop stop-color="#90C44D"/>
<stop offset="1" stop-color="#3C6C00"/>
</linearGradient>
<linearGradient id="paint7_linear_26_6291" x1="347.412" y1="292.467" x2="254.97" y2="255.742" gradientUnits="userSpaceOnUse">
<stop stop-color="#133C00"/>
<stop offset="0.99" stop-color="#358500"/>
</linearGradient>
<linearGradient id="paint8_linear_26_6291" x1="366.067" y1="313.328" x2="278.688" y2="278.613" gradientUnits="userSpaceOnUse">
<stop stop-color="#133C00"/>
<stop offset="0.99" stop-color="#358500"/>
</linearGradient>
<linearGradient id="paint9_linear_26_6291" x1="408.622" y1="225.311" x2="164.785" y2="128.437" gradientUnits="userSpaceOnUse">
<stop stop-color="#90C44D"/>
<stop offset="1" stop-color="#3C6C00"/>
</linearGradient>
<linearGradient id="paint10_linear_26_6291" x1="276.827" y1="86.207" x2="237.517" y2="70.5894" gradientUnits="userSpaceOnUse">
<stop stop-color="#90C44D"/>
<stop offset="1" stop-color="#3C6C00"/>
</linearGradient>
<linearGradient id="paint11_linear_26_6291" x1="305.749" y1="141.878" x2="278.492" y2="131.049" gradientUnits="userSpaceOnUse">
<stop stop-color="#90C44D"/>
<stop offset="1" stop-color="#3C6C00"/>
</linearGradient>
<linearGradient id="paint12_linear_26_6291" x1="319.638" y1="174.196" x2="300.755" y2="166.694" gradientUnits="userSpaceOnUse">
<stop stop-color="#133C00"/>
<stop offset="0.99" stop-color="#358500"/>
</linearGradient>
<linearGradient id="paint13_linear_26_6291" x1="287.989" y1="104.233" x2="270.834" y2="97.4175" gradientUnits="userSpaceOnUse">
<stop stop-color="#133C00"/>
<stop offset="0.99" stop-color="#358500"/>
</linearGradient>
<linearGradient id="paint14_linear_26_6291" x1="335.241" y1="173.947" x2="314.975" y2="165.895" gradientUnits="userSpaceOnUse">
<stop stop-color="#133C00"/>
<stop offset="0.99" stop-color="#358500"/>
</linearGradient>
<linearGradient id="paint15_linear_26_6291" x1="332.697" y1="278.576" x2="365.083" y2="108.602" gradientUnits="userSpaceOnUse">
<stop stop-color="#90C44D"/>
<stop offset="1" stop-color="#3C6C00"/>
</linearGradient>
<linearGradient id="paint16_linear_26_6291" x1="364.088" y1="264.038" x2="346.58" y2="257.082" gradientUnits="userSpaceOnUse">
<stop stop-color="#133C00"/>
<stop offset="0.99" stop-color="#358500"/>
</linearGradient>
<linearGradient id="paint17_linear_26_6291" x1="341.311" y1="291.224" x2="361.134" y2="187.187" gradientUnits="userSpaceOnUse">
<stop stop-color="#90C44D"/>
<stop offset="1" stop-color="#3C6C00"/>
</linearGradient>
<linearGradient id="paint18_linear_26_6291" x1="373.959" y1="280.074" x2="364.517" y2="276.323" gradientUnits="userSpaceOnUse">
<stop stop-color="#133C00"/>
<stop offset="0.99" stop-color="#358500"/>
</linearGradient>
<radialGradient id="paint19_radial_26_6291" cx="0" cy="0" r="1" gradientUnits="userSpaceOnUse" gradientTransform="translate(278.869 164.846) rotate(28.9474) scale(114.802 55.5273)">
<stop stop-color="#1D7A00"/>
<stop offset="0.19" stop-color="#578100" stop-opacity="0.7"/>
<stop offset="0.43" stop-color="#948900" stop-opacity="0.4"/>
<stop offset="0.65" stop-color="#C08F00" stop-opacity="0.18"/>
<stop offset="0.85" stop-color="#DA9200" stop-opacity="0.05"/>
<stop offset="1" stop-color="#E49400" stop-opacity="0"/>
</radialGradient>
<linearGradient id="paint20_linear_26_6291" x1="307.958" y1="148.685" x2="52.9654" y2="199.187" gradientUnits="userSpaceOnUse">
<stop stop-color="#3C6C00"/>
<stop offset="1" stop-color="#90C44D"/>
</linearGradient>
<linearGradient id="paint21_linear_26_6291" x1="92.8684" y1="150.02" x2="78.5077" y2="114.606" gradientUnits="userSpaceOnUse">
<stop stop-color="#90C44D"/>
<stop offset="1" stop-color="#3C6C00"/>
</linearGradient>
<linearGradient id="paint22_linear_26_6291" x1="182.005" y1="156.329" x2="57.1609" y2="181.055" gradientUnits="userSpaceOnUse">
<stop stop-color="#133C00"/>
<stop offset="0.99" stop-color="#358500"/>
</linearGradient>
<linearGradient id="paint23_linear_26_6291" x1="204.55" y1="180.086" x2="103.619" y2="200.076" gradientUnits="userSpaceOnUse">
<stop stop-color="#133C00"/>
<stop offset="0.99" stop-color="#358500"/>
</linearGradient>
<linearGradient id="paint24_linear_26_6291" x1="111.788" y1="159.876" x2="106.374" y2="146.524" gradientUnits="userSpaceOnUse">
<stop stop-color="#90C44D"/>
<stop offset="1" stop-color="#3C6C00"/>
</linearGradient>
<linearGradient id="paint25_linear_26_6291" x1="172.597" y1="208.578" x2="166.297" y2="193.042" gradientUnits="userSpaceOnUse">
<stop stop-color="#90C44D"/>
<stop offset="1" stop-color="#3C6C00"/>
</linearGradient>
<linearGradient id="paint26_linear_26_6291" x1="210.164" y1="230.39" x2="200.376" y2="206.251" gradientUnits="userSpaceOnUse">
<stop stop-color="#90C44D"/>
<stop offset="1" stop-color="#3C6C00"/>
</linearGradient>
<linearGradient id="paint27_linear_26_6291" x1="295.551" y1="228.493" x2="197.976" y2="247.818" gradientUnits="userSpaceOnUse">
<stop stop-color="#133C00"/>
<stop offset="0.99" stop-color="#358500"/>
</linearGradient>
<linearGradient id="paint28_linear_26_6291" x1="322.539" y1="235.881" x2="230.309" y2="254.148" gradientUnits="userSpaceOnUse">
<stop stop-color="#133C00"/>
<stop offset="0.99" stop-color="#358500"/>
</linearGradient>
<linearGradient id="paint29_linear_26_6291" x1="310.512" y1="138.859" x2="53.1272" y2="189.834" gradientUnits="userSpaceOnUse">
<stop stop-color="#90C44D"/>
<stop offset="1" stop-color="#3C6C00"/>
</linearGradient>
<linearGradient id="paint30_linear_26_6291" x1="124.312" y1="93.5562" x2="82.8186" y2="101.774" gradientUnits="userSpaceOnUse">
<stop stop-color="#90C44D"/>
<stop offset="1" stop-color="#3C6C00"/>
</linearGradient>
<linearGradient id="paint31_linear_26_6291" x1="178.818" y1="124.618" x2="150.047" y2="130.316" gradientUnits="userSpaceOnUse">
<stop stop-color="#90C44D"/>
<stop offset="1" stop-color="#3C6C00"/>
</linearGradient>
<linearGradient id="paint32_linear_26_6291" x1="208.024" y1="144.224" x2="188.092" y2="148.172" gradientUnits="userSpaceOnUse">
<stop stop-color="#133C00"/>
<stop offset="0.99" stop-color="#358500"/>
</linearGradient>
<linearGradient id="paint33_linear_26_6291" x1="143.472" y1="102.646" x2="125.365" y2="106.233" gradientUnits="userSpaceOnUse">
<stop stop-color="#133C00"/>
<stop offset="0.99" stop-color="#358500"/>
</linearGradient>
<linearGradient id="paint34_linear_26_6291" x1="221.001" y1="135.544" x2="199.602" y2="139.782" gradientUnits="userSpaceOnUse">
<stop stop-color="#133C00"/>
<stop offset="0.99" stop-color="#358500"/>
</linearGradient>
<linearGradient id="paint35_linear_26_6291" x1="275.59" y1="224.858" x2="210.567" y2="64.5074" gradientUnits="userSpaceOnUse">
<stop stop-color="#90C44D"/>
<stop offset="1" stop-color="#3C6C00"/>
</linearGradient>
<linearGradient id="paint36_linear_26_6291" x1="294.127" y1="195.564" x2="275.647" y2="199.224" gradientUnits="userSpaceOnUse">
<stop stop-color="#133C00"/>
<stop offset="0.99" stop-color="#358500"/>
</linearGradient>
<linearGradient id="paint37_linear_26_6291" x1="289.696" y1="230.805" x2="249.897" y2="132.659" gradientUnits="userSpaceOnUse">
<stop stop-color="#90C44D"/>
<stop offset="1" stop-color="#3C6C00"/>
</linearGradient>
<linearGradient id="paint38_linear_26_6291" x1="311.121" y1="203.676" x2="301.156" y2="205.65" gradientUnits="userSpaceOnUse">
<stop stop-color="#133C00"/>
<stop offset="0.99" stop-color="#358500"/>
</linearGradient>
<radialGradient id="paint39_radial_26_6291" cx="0" cy="0" r="1" gradientUnits="userSpaceOnUse" gradientTransform="translate(258.974 171.23) rotate(-169.213) scale(39.6291 39.6291)">
<stop stop-color="#8F551A"/>
<stop offset="0.04" stop-color="#8F551A" stop-opacity="0.94"/>
<stop offset="0.27" stop-color="#8F551A" stop-opacity="0.6"/>
<stop offset="0.49" stop-color="#8F551A" stop-opacity="0.34"/>
<stop offset="0.69" stop-color="#8F551A" stop-opacity="0.15"/>
<stop offset="0.86" stop-color="#8F551A" stop-opacity="0.04"/>
<stop offset="1" stop-color="#8F551A" stop-opacity="0"/>
</radialGradient>
<linearGradient id="paint40_linear_26_6291" x1="265.744" y1="138.491" x2="258.791" y2="151.693" gradientUnits="userSpaceOnUse">
<stop stop-color="white"/>
<stop offset="0.3" stop-color="#FEF5EA"/>
<stop offset="0.73" stop-color="#FDEBD1"/>
<stop offset="1" stop-color="#FDE7C8"/>
</linearGradient>
<linearGradient id="paint41_linear_26_6291" x1="275.669" y1="151.788" x2="261.417" y2="156.204" gradientUnits="userSpaceOnUse">
<stop stop-color="white"/>
<stop offset="0.3" stop-color="#FEF5EA"/>
<stop offset="0.73" stop-color="#FDEBD1"/>
<stop offset="1" stop-color="#FDE7C8"/>
</linearGradient>
<linearGradient id="paint42_linear_26_6291" x1="275.473" y1="169.451" x2="262.271" y2="162.498" gradientUnits="userSpaceOnUse">
<stop stop-color="#FDE7C8"/>
<stop offset="0.27" stop-color="#FDEBD1"/>
<stop offset="0.7" stop-color="#FEF5EA"/>
<stop offset="1" stop-color="white"/>
</linearGradient>
<linearGradient id="paint43_linear_26_6291" x1="261.593" y1="183.958" x2="257.177" y2="169.705" gradientUnits="userSpaceOnUse">
<stop stop-color="white"/>
<stop offset="0.3" stop-color="#FEF5EA"/>
<stop offset="0.73" stop-color="#FDEBD1"/>
<stop offset="1" stop-color="#FDE7C8"/>
</linearGradient>
<linearGradient id="paint44_linear_26_6291" x1="239.472" y1="183.381" x2="246.425" y2="170.178" gradientUnits="userSpaceOnUse">
<stop stop-color="#FDE7C8"/>
<stop offset="0.27" stop-color="#FDEBD1"/>
<stop offset="0.7" stop-color="#FEF5EA"/>
<stop offset="1" stop-color="white"/>
</linearGradient>
<linearGradient id="paint45_linear_26_6291" x1="225.37" y1="164.932" x2="239.619" y2="160.513" gradientUnits="userSpaceOnUse">
<stop stop-color="white"/>
<stop offset="0.3" stop-color="#FEF5EA"/>
<stop offset="0.73" stop-color="#FDEBD1"/>
<stop offset="1" stop-color="#FDE7C8"/>
</linearGradient>
<linearGradient id="paint46_linear_26_6291" x1="230.589" y1="143.179" x2="243.793" y2="150.129" gradientUnits="userSpaceOnUse">
<stop stop-color="white"/>
<stop offset="0.3" stop-color="#FEF5EA"/>
<stop offset="0.73" stop-color="#FDEBD1"/>
<stop offset="1" stop-color="#FDE7C8"/>
</linearGradient>
<linearGradient id="paint47_linear_26_6291" x1="248.457" y1="133.66" x2="252.873" y2="147.913" gradientUnits="userSpaceOnUse">
<stop stop-color="#FDE7C8"/>
<stop offset="0.27" stop-color="#FDEBD1"/>
<stop offset="0.7" stop-color="#FEF5EA"/>
<stop offset="1" stop-color="white"/>
</linearGradient>
<linearGradient id="paint48_linear_26_6291" x1="256.495" y1="146.487" x2="252.27" y2="168.663" gradientUnits="userSpaceOnUse">
<stop stop-color="#FFF25B"/>
<stop offset="0.99" stop-color="#F7C50F"/>
</linearGradient>
<linearGradient id="paint49_linear_26_6291" x1="256.229" y1="149.911" x2="252.643" y2="168.734" gradientUnits="userSpaceOnUse">
<stop stop-color="#FFF25B"/>
<stop offset="0.99" stop-color="#F7C50F"/>
</linearGradient>
</defs>
</svg>
