<svg width="427" height="333" viewBox="0 0 427 333" fill="none" xmlns="http://www.w3.org/2000/svg">
<mask id="mask0_26_6204" style="mask-type:luminance" maskUnits="userSpaceOnUse" x="63" y="31" width="171" height="295">
<path d="M221.396 31.9074C221.396 31.9074 221.434 31.8834 221.457 31.8707C221.696 31.7578 221.944 31.7357 222.18 31.8675C235.169 39.1373 234.64 59.1484 231.292 77.399C229.579 86.7379 227.093 96.1233 224.584 105.479C223.3 106.161 222.031 106.875 220.8 107.614C214.98 111.079 209.329 115.118 204.832 120.224C203.995 121.175 204.83 122.909 206.172 122.443C211.214 120.683 216.328 119.035 221.502 117.662C221.193 119.219 220.934 120.775 220.774 122.32C220.21 127.796 221.223 132.711 221.866 137.68C222.587 143.273 222.54 148.592 220.615 154.833C220.049 156.674 219.36 158.488 218.601 160.291C217.889 160.443 217.179 160.604 216.471 160.772C209.887 162.347 203.284 164.522 197.478 168.06C196.4 168.72 196.678 170.619 198.1 170.575C203.267 170.399 208.467 170.351 213.663 170.547C213.287 171.267 212.919 171.985 212.549 172.695C210.678 176.3 208.872 179.942 207.103 183.595C200.727 185.155 194.362 187.302 188.737 190.73C187.659 191.389 187.945 193.287 189.351 193.247C193.741 193.1 198.156 193.042 202.56 193.145C198.844 201.065 195.191 209.014 191.339 216.885C187.995 223.715 184.569 231.218 180.152 237.403C176.995 241.816 172.886 244.762 168.856 247.373C164.451 250.223 160.187 252.971 156.616 257.683C152.495 263.13 151.475 270.494 150.025 276.619C149.451 279.042 148.726 281.376 147.804 283.647C142.879 285.091 138.056 286.986 133.682 289.645C132.604 290.305 132.882 292.204 134.296 292.162C137.256 292.061 140.233 292.007 143.213 292.012C140.433 296.059 137.213 299.744 134.021 303.306C127.838 310.206 121.425 318.859 113.566 319.969C106.158 321.01 100.492 316.451 93.5544 315.989C84.6478 315.397 73.9871 319.423 64.8953 325.455C63.946 326.082 63.0129 325.292 63.6988 324.034C69.9474 312.442 76.196 300.851 82.4349 289.252C96.9837 262.262 111.523 235.265 126.072 208.274C142.626 177.543 159.182 146.821 175.744 116.089C188.03 93.2995 200.315 70.5017 212.593 47.7137C215.303 42.6785 218.02 37.6418 220.732 32.6147C220.924 32.2582 221.16 32.0366 221.399 31.9237L221.396 31.9074Z" fill="white"/>
</mask>
<g mask="url(#mask0_26_6204)">
<path d="M221.396 31.9074C221.396 31.9074 221.434 31.8834 221.457 31.8707C221.696 31.7578 221.944 31.7357 222.18 31.8676C235.169 39.1373 234.64 59.1484 231.292 77.399C229.579 86.7379 227.093 96.1233 224.584 105.479C223.3 106.161 222.031 106.875 220.8 107.614C214.98 111.079 209.329 115.118 204.832 120.224C203.995 121.175 204.83 122.909 206.172 122.443C211.214 120.683 216.328 119.035 221.502 117.662C221.193 119.219 220.934 120.775 220.774 122.32C220.21 127.796 221.223 132.711 221.866 137.68C222.587 143.273 222.54 148.592 220.615 154.833C220.049 156.674 219.36 158.488 218.601 160.291C217.889 160.443 217.179 160.604 216.471 160.772C209.887 162.347 203.284 164.522 197.478 168.06C196.4 168.72 196.678 170.619 198.1 170.575C203.267 170.399 208.467 170.351 213.663 170.547C213.287 171.267 212.919 171.985 212.549 172.695C210.678 176.3 208.872 179.942 207.103 183.595C200.727 185.155 194.362 187.302 188.737 190.73C187.659 191.389 187.945 193.287 189.351 193.247C193.741 193.1 198.156 193.042 202.56 193.145C198.844 201.065 195.191 209.014 191.339 216.885C187.995 223.715 184.569 231.218 180.152 237.403C176.995 241.816 172.886 244.762 168.856 247.373C164.451 250.223 160.187 252.971 156.616 257.683C152.495 263.13 151.475 270.494 150.025 276.619C149.451 279.042 148.726 281.376 147.804 283.647C142.879 285.091 138.056 286.986 133.682 289.645C132.604 290.305 132.882 292.204 134.296 292.162C137.256 292.061 140.233 292.007 143.213 292.012C140.433 296.059 137.213 299.744 134.021 303.306C127.838 310.206 121.425 318.859 113.566 319.969C106.158 321.01 100.492 316.451 93.5544 315.989C84.6478 315.397 73.9871 319.423 64.8953 325.455C63.946 326.082 63.0129 325.292 63.6988 324.034C69.9474 312.442 76.196 300.851 82.4349 289.252C96.9837 262.262 111.523 235.265 126.072 208.274C142.626 177.543 159.182 146.821 175.744 116.089C188.03 93.2995 200.315 70.5017 212.593 47.7137C215.303 42.6785 218.02 37.6418 220.732 32.6147C220.924 32.2582 221.16 32.0366 221.399 31.9237L221.396 31.9074Z" fill="url(#paint0_linear_26_6204)"/>
<path style="mix-blend-mode:multiply" opacity="0.3" d="M253.271 86.3979C221.326 95.4044 190.647 108.226 161.876 124.79C152.337 130.285 143.831 115.454 153.401 109.945C183.372 92.6976 215.569 79.2756 248.838 69.8905C259.458 66.8908 263.883 83.3997 253.279 86.3964L253.271 86.3979Z" fill="url(#paint1_linear_26_6204)"/>
<path opacity="0.5" d="M249.439 141.372C213.028 144.691 178.529 158.131 143.929 169.057C133.404 172.383 129.012 155.868 139.496 152.549C175.628 141.138 211.313 127.741 249.329 124.276C260.33 123.274 260.315 140.377 249.438 141.364L249.439 141.372Z" fill="url(#paint2_linear_26_6204)"/>
<path opacity="0.5" d="M226.009 170.021C194.493 180.132 163.412 191.591 131.542 200.55C129.09 201.236 128.071 197.433 130.522 196.739C162.399 187.779 193.474 176.329 224.989 166.218C227.416 165.436 228.428 169.249 226.01 170.029L226.009 170.021Z" fill="url(#paint3_linear_26_6204)"/>
<path style="mix-blend-mode:multiply" opacity="0.3" d="M249.409 113.919C212.183 117.376 178.246 134.252 143.04 145.445C141.421 145.955 140.744 143.417 142.355 142.908C177.806 131.635 211.913 114.769 249.389 111.297C251.085 111.142 251.08 113.769 249.411 113.927L249.409 113.919Z" fill="url(#paint4_linear_26_6204)"/>
<path style="mix-blend-mode:multiply" opacity="0.3" d="M239.426 183.024C192.056 187.48 147.625 206.035 103.348 222.213C101.75 222.796 101.089 220.254 102.67 219.675C147.184 203.41 191.788 184.88 239.412 180.393C241.107 180.23 241.104 182.864 239.434 183.023L239.426 183.024Z" fill="url(#paint5_linear_26_6204)"/>
<path style="mix-blend-mode:multiply" opacity="0.3" d="M229.01 224.156C179.252 240.898 126.974 247.855 76.5725 262.238C65.9582 265.27 61.5417 248.759 72.1317 245.732C122.533 231.349 174.812 224.393 224.578 207.648C235.041 204.132 239.417 220.65 229.01 224.156Z" fill="url(#paint6_linear_26_6204)"/>
<path opacity="0.5" d="M170.607 275.465C143.175 282.981 114.674 284.532 86.7434 289.34C75.9712 291.191 71.4329 274.704 82.3107 272.833C110.242 268.025 138.751 266.472 166.174 258.958C176.812 256.048 181.243 272.547 170.607 275.465Z" fill="url(#paint7_linear_26_6204)"/>
<path opacity="0.5" d="M179.325 255.367C144.704 260.264 110.614 268.299 75.9846 273.197C74.3207 273.43 73.6272 270.894 75.2993 270.66C109.92 265.763 144.01 257.728 178.639 252.83C180.295 252.599 180.997 255.133 179.325 255.367Z" fill="#7D7B01"/>
<path d="M152.721 293.684C121.821 301.061 89.8239 298.22 58.4886 301.944C55.9616 302.24 55.9683 298.301 58.4613 298.003C89.4605 294.326 121.14 297.177 151.702 289.881C154.171 289.284 155.202 293.102 152.721 293.684Z" fill="url(#paint8_linear_26_6204)"/>
</g>
<mask id="mask1_26_6204" style="mask-type:luminance" maskUnits="userSpaceOnUse" x="39" y="31" width="187" height="295">
<path d="M70.1732 210.366C70.8946 208.411 71.3578 206.513 71.6666 204.645C74.1575 207.604 76.5601 210.63 78.8993 213.677C79.7532 214.802 81.4077 213.813 81.236 212.558C80.289 205.822 77.7833 199.34 74.8299 193.246C74.0978 191.745 73.3236 190.243 72.4956 188.768C72.7615 185.747 73.3375 182.675 74.5701 179.604C75.0429 178.42 75.5611 177.253 76.1198 176.078C80.1857 181.606 83.8336 187.458 87.2816 193.364C87.9935 194.584 89.7564 193.81 89.7354 192.552C89.6353 185.755 87.9703 179.003 85.806 172.591C84.881 169.856 83.8116 167.114 82.5714 164.447C83.6675 162.648 84.7602 160.874 85.8251 159.132C94.3132 145.161 103.433 131.634 111.612 117.453C114.863 111.818 118.15 105.924 122.308 101.025C124.604 98.324 126.957 96.2346 129.447 94.5064C131.11 99.7014 132.513 104.988 133.763 110.27C134.093 111.646 136.002 111.417 136.351 110.206C138.228 103.672 138.588 96.7282 138.368 89.9623C138.367 89.8699 138.367 89.7775 138.358 89.6866C142.159 87.9525 146.014 86.2335 149.6 83.3707C153.671 80.1377 157.276 75.9586 160.925 71.9648C167.719 64.5188 174.543 57.0503 181.766 50.3054C195.325 37.6407 211.9 26.4123 225.028 33.437C225.264 33.5688 225.382 33.7904 225.415 34.0533C225.42 34.0777 225.424 34.102 225.429 34.1264C225.464 34.3975 225.406 34.7115 225.213 35.068C222.437 40.0653 219.653 45.0641 216.878 50.0614C204.299 72.6879 191.723 95.3224 179.145 117.949C162.187 148.462 145.228 178.966 128.27 209.479C113.375 236.283 98.4775 263.08 83.5819 289.884C77.1817 301.387 70.7927 312.904 64.3925 324.407C63.6904 325.668 62.5279 325.309 62.5464 324.169C62.7222 313.255 60.3628 302.109 55.0734 294.929C50.9448 289.336 44.04 287.017 40.9342 280.212C37.6326 272.998 41.4615 262.927 43.9358 254.007C45.4207 248.684 47.0171 243.238 49.4262 238.083C51.5775 233.474 54.3862 229.666 57.7888 226.148C62.162 221.629 67.8221 216.797 70.1859 210.389L70.1732 210.366Z" fill="white"/>
</mask>
<g mask="url(#mask1_26_6204)">
<path d="M70.1732 210.366C70.8946 208.411 71.3578 206.513 71.6667 204.645C74.1575 207.604 76.5601 210.63 78.8993 213.677C79.7532 214.802 81.4077 213.813 81.236 212.558C80.289 205.822 77.7833 199.34 74.8299 193.246C74.0978 191.745 73.3236 190.243 72.4956 188.768C72.7615 185.747 73.3375 182.675 74.5701 179.604C75.043 178.42 75.5611 177.253 76.1198 176.078C80.1857 181.606 83.8336 187.458 87.2816 193.364C87.9935 194.584 89.7564 193.81 89.7354 192.552C89.6353 185.755 87.9703 179.003 85.8061 172.591C84.881 169.856 83.8116 167.114 82.5714 164.447C83.6675 162.648 84.7602 160.874 85.8251 159.132C94.3132 145.161 103.433 131.634 111.612 117.453C114.863 111.818 118.15 105.924 122.308 101.025C124.604 98.324 126.957 96.2346 129.447 94.5064C131.11 99.7014 132.513 104.988 133.763 110.27C134.093 111.646 136.002 111.417 136.351 110.206C138.229 103.672 138.589 96.7281 138.368 89.9623C138.367 89.8699 138.367 89.7775 138.358 89.6866C142.159 87.9525 146.014 86.2335 149.6 83.3706C153.671 80.1377 157.276 75.9586 160.925 71.9647C167.719 64.5187 174.543 57.0503 181.766 50.3054C195.325 37.6407 211.9 26.4123 225.028 33.437C225.264 33.5688 225.382 33.7904 225.415 34.0533C225.42 34.0777 225.424 34.102 225.429 34.1264C225.464 34.3975 225.406 34.7115 225.213 35.068C222.437 40.0653 219.653 45.0641 216.878 50.0614C204.3 72.6878 191.723 95.3224 179.145 117.949C162.187 148.462 145.228 178.966 128.27 209.479C113.375 236.283 98.4776 263.08 83.5819 289.884C77.1817 301.387 70.7927 312.904 64.3925 324.407C63.6904 325.668 62.528 325.309 62.5465 324.169C62.7222 313.255 60.3628 302.109 55.0734 294.929C50.9448 289.336 44.04 287.017 40.9342 280.212C37.6327 272.998 41.4615 262.927 43.9358 254.007C45.4208 248.684 47.0171 243.238 49.4262 238.083C51.5775 233.474 54.3862 229.666 57.7889 226.148C62.162 221.629 67.8221 216.797 70.186 210.389L70.1732 210.366Z" fill="url(#paint9_linear_26_6204)"/>
<path style="mix-blend-mode:multiply" opacity="0.3" d="M155.848 30.259C164.063 62.4216 168.359 95.3898 168.448 128.587C168.476 139.597 185.577 139.52 185.545 128.485C185.445 93.9098 180.917 59.3198 172.356 25.8263C169.621 15.1385 153.125 19.5858 155.848 30.259Z" fill="url(#paint10_linear_26_6204)"/>
<path style="mix-blend-mode:multiply" opacity="0.3" d="M113.208 87.1405C128.589 120.302 134.257 156.897 142.149 192.31C144.548 203.087 161.046 198.606 158.655 187.869C150.414 150.89 144.118 113.296 128.053 78.6654C123.401 68.6459 108.61 77.2284 113.208 87.1405Z" fill="url(#paint11_linear_26_6204)"/>
<path d="M105.127 122.374C112.18 154.708 117.852 187.346 126.075 219.423C126.705 221.887 130.514 220.858 129.886 218.402C121.655 186.327 115.992 153.695 108.938 121.354C108.397 118.865 104.589 119.902 105.127 122.374Z" fill="url(#paint12_linear_26_6204)"/>
<path d="M133.977 47.3938C149.65 81.3332 152.061 119.163 160.028 155.235C160.393 156.89 162.93 156.205 162.565 154.55C154.542 118.227 152.038 80.2639 136.252 46.0852C135.538 44.5466 133.265 45.8634 133.967 47.3873L133.977 47.3938Z" fill="url(#paint13_linear_26_6204)"/>
<path d="M84.087 101.735C103.986 144.959 110.205 192.708 118.401 239.121C118.693 240.79 121.229 240.097 120.938 238.436C112.693 191.763 106.372 143.882 86.3703 100.425C85.6629 98.8767 83.3827 100.203 84.0854 101.727L84.087 101.735Z" fill="url(#paint14_linear_26_6204)"/>
<path style="mix-blend-mode:multiply" opacity="0.3" d="M48.8241 120.311C59.2821 171.754 79.4728 220.485 92.2937 271.301C94.9976 282.003 111.492 277.548 108.8 266.86C95.9786 216.044 75.7879 167.313 65.33 115.87C63.133 105.046 46.6395 109.552 48.8241 120.311Z" fill="url(#paint15_linear_26_6204)"/>
<path opacity="0.7" d="M49.2178 222.9C56.47 250.407 69.4107 275.838 79.2556 302.422C83.053 312.68 99.5936 308.334 95.7629 297.989C85.918 271.405 72.9759 245.967 65.7252 218.467C62.9107 207.803 46.413 212.242 49.2178 222.9Z" fill="url(#paint16_linear_26_6204)"/>
<path style="mix-blend-mode:multiply" opacity="0.3" d="M57.0224 190.37C70.1409 222.784 80.2809 256.305 93.4075 288.719C94.0387 290.265 96.5803 289.604 95.9445 288.033C82.826 255.618 72.6861 222.098 59.5595 189.684C58.9349 188.129 56.3851 188.791 57.0224 190.37Z" fill="url(#paint17_linear_26_6204)"/>
<path opacity="0.5" d="M36.8828 235.937C45.989 266.373 64.4894 292.63 76.9794 321.613C77.9891 323.954 81.3957 321.958 80.4099 319.655C68.0484 290.992 49.7011 265.01 40.6939 234.917C39.9688 232.48 36.1577 233.501 36.8828 235.937Z" fill="url(#paint18_linear_26_6204)"/>
<path style="mix-blend-mode:multiply" d="M49.3576 214.925C64.2368 241.829 121.264 238.772 176.725 208.102C232.2 177.42 265.105 130.749 250.226 103.845C235.347 76.9413 178.319 79.9976 122.844 110.68C67.3759 141.352 34.48 188.029 49.3591 214.933L49.3576 214.925Z" fill="url(#paint19_radial_26_6204)"/>
</g>
<mask id="mask2_26_6204" style="mask-type:luminance" maskUnits="userSpaceOnUse" x="100" y="86" width="295" height="185">
<path d="M392.104 86.2262C392.104 86.2262 392.156 86.2331 392.174 86.2382C392.433 86.2729 392.655 86.382 392.786 86.6263C399.753 99.7814 388.453 116.307 375.727 129.815C369.218 136.727 362.04 143.261 354.855 149.763C353.4 149.637 351.953 149.55 350.513 149.497C343.751 149.254 336.811 149.574 330.264 151.428C329.049 151.769 328.808 153.683 330.183 154.01C335.371 155.268 340.559 156.661 345.663 158.314C344.558 159.45 343.493 160.621 342.521 161.833C339.074 166.133 337.262 170.804 335.096 175.332C332.666 180.423 329.741 184.86 324.744 189.06C323.272 190.3 321.706 191.448 320.09 192.547C319.41 192.29 318.723 192.042 318.044 191.792C311.658 189.542 304.937 187.793 298.136 187.608C296.867 187.572 296.083 189.329 297.29 190.058C301.726 192.713 306.127 195.494 310.381 198.478C309.675 198.882 308.976 199.276 308.279 199.678C304.75 201.697 301.257 203.768 297.788 205.876C291.58 203.726 285.073 202.08 278.492 201.903C277.223 201.867 276.439 203.624 277.645 204.345C281.407 206.599 285.153 208.948 288.799 211.434C281.377 216.072 273.992 220.769 266.496 225.286C259.98 229.203 253.036 233.656 245.962 236.452C240.914 238.449 235.868 238.686 231.065 238.693C225.815 238.7 220.739 238.691 215.191 240.707C208.769 243.042 203.918 248.678 199.38 253.035C197.579 254.759 195.707 256.327 193.703 257.735C188.78 256.275 183.703 255.248 178.586 255.112C177.317 255.076 176.524 256.835 177.739 257.554C180.277 259.082 182.812 260.644 185.309 262.263C180.78 264.153 176.072 265.504 171.457 266.762C162.522 269.205 152.438 272.986 145.231 269.655C138.447 266.513 136.163 259.602 130.575 255.449C123.417 250.123 112.28 247.718 101.365 247.845C100.223 247.861 99.8738 246.69 101.13 245.996C112.67 239.649 124.201 233.303 135.741 226.956C162.605 212.177 189.469 197.398 216.341 182.617C246.922 165.792 277.503 148.967 308.084 132.142C330.767 119.666 353.457 107.18 376.14 94.704C381.152 91.9482 386.163 89.1842 391.167 86.43C391.525 86.2355 391.834 86.1767 392.101 86.2099L392.104 86.2262Z" fill="white"/>
</mask>
<g mask="url(#mask2_26_6204)">
<path d="M392.104 86.2262C392.104 86.2262 392.156 86.2331 392.174 86.2382C392.433 86.2729 392.655 86.382 392.786 86.6263C399.753 99.7814 388.453 116.307 375.727 129.815C369.218 136.727 362.04 143.261 354.855 149.763C353.4 149.637 351.953 149.55 350.513 149.497C343.751 149.254 336.811 149.574 330.264 151.428C329.049 151.769 328.808 153.683 330.183 154.01C335.371 155.268 340.559 156.661 345.663 158.314C344.558 159.45 343.493 160.621 342.521 161.833C339.074 166.133 337.262 170.804 335.096 175.332C332.666 180.423 329.741 184.86 324.744 189.06C323.272 190.3 321.706 191.448 320.09 192.547C319.41 192.29 318.723 192.042 318.044 191.792C311.658 189.542 304.937 187.793 298.136 187.608C296.867 187.572 296.083 189.329 297.29 190.058C301.726 192.713 306.127 195.494 310.381 198.478C309.675 198.882 308.976 199.276 308.279 199.678C304.75 201.697 301.257 203.768 297.788 205.876C291.58 203.726 285.073 202.08 278.492 201.903C277.223 201.867 276.439 203.624 277.645 204.345C281.407 206.599 285.153 208.948 288.799 211.434C281.377 216.072 273.992 220.769 266.496 225.286C259.98 229.203 253.036 233.656 245.962 236.452C240.914 238.449 235.868 238.686 231.065 238.693C225.815 238.7 220.739 238.691 215.191 240.707C208.769 243.042 203.918 248.678 199.38 253.035C197.579 254.759 195.707 256.327 193.703 257.735C188.78 256.275 183.703 255.248 178.586 255.112C177.317 255.076 176.524 256.835 177.739 257.554C180.277 259.082 182.812 260.644 185.309 262.263C180.78 264.153 176.072 265.504 171.457 266.762C162.522 269.205 152.438 272.986 145.231 269.655C138.447 266.513 136.163 259.602 130.575 255.449C123.417 250.123 112.28 247.718 101.365 247.845C100.223 247.861 99.8738 246.69 101.13 245.996C112.67 239.649 124.201 233.303 135.741 226.956C162.605 212.177 189.469 197.398 216.341 182.617C246.922 165.792 277.503 148.967 308.084 132.142C330.767 119.666 353.457 107.18 376.14 94.704C381.152 91.9482 386.163 89.1842 391.167 86.43C391.525 86.2355 391.834 86.1767 392.101 86.2099L392.104 86.2262Z" fill="url(#paint20_linear_26_6204)"/>
<path style="mix-blend-mode:multiply" opacity="0.3" d="M389.309 149.291C357.591 139.523 324.857 133.65 291.705 131.947C280.708 131.383 281.613 114.313 292.635 114.881C327.171 116.648 361.492 122.85 394.532 133.023C405.081 136.272 399.84 152.536 389.301 149.293L389.309 149.291Z" fill="url(#paint21_linear_26_6204)"/>
<path opacity="0.5" d="M356.257 193.381C323.873 176.41 287.603 168.981 252.61 159.382C241.964 156.462 247.238 140.201 257.841 143.112C294.378 153.132 331.628 161.241 365.443 178.966C375.231 184.094 365.933 198.455 356.257 193.381Z" fill="url(#paint22_linear_26_6204)"/>
<path opacity="0.5" d="M321.032 204.738C289.073 196.134 256.75 188.887 225.117 179.119C222.685 178.371 223.888 174.616 226.328 175.363C257.963 185.139 290.285 192.377 322.245 200.989C324.702 201.649 323.491 205.405 321.042 204.744L321.032 204.738Z" fill="url(#paint23_linear_26_6204)"/>
<path style="mix-blend-mode:multiply" opacity="0.3" d="M371.131 170.309C337.995 153.009 300.321 148.768 264.677 139.066C263.036 138.621 263.846 136.119 265.48 136.565C301.372 146.338 339.168 150.682 372.544 168.096C374.05 168.886 372.619 171.094 371.133 170.317L371.131 170.309Z" fill="url(#paint24_linear_26_6204)"/>
<path style="mix-blend-mode:multiply" opacity="0.3" d="M325.249 222.936C283.036 200.97 235.65 192.445 189.684 182.008C188.03 181.633 188.849 179.129 190.487 179.507C236.698 189.998 284.224 198.64 326.66 220.714C328.173 221.503 326.743 223.711 325.249 222.936Z" fill="url(#paint25_linear_26_6204)"/>
<path style="mix-blend-mode:multiply" opacity="0.3" d="M294.175 251.838C243.297 238.895 195.601 216.375 145.467 201.111C134.908 197.897 140.157 181.632 150.698 184.841C200.833 200.113 248.529 222.633 299.407 235.576C310.109 238.3 304.807 254.55 294.176 251.846L294.175 251.838Z" fill="url(#paint26_linear_26_6204)"/>
<path opacity="0.5" d="M217.279 263.241C190.156 254.667 165.378 240.512 139.309 229.39C129.251 225.096 134.392 208.792 144.54 213.12C170.609 224.242 195.395 238.395 222.51 246.971C233.031 250.293 227.792 266.564 217.279 263.241Z" fill="url(#paint27_linear_26_6204)"/>
<path opacity="0.5" d="M235.506 251.092C203.761 236.414 170.774 224.665 139.031 209.995C137.508 209.293 138.3 206.777 139.833 207.495C171.576 222.165 204.565 233.921 236.308 248.591C237.823 249.296 237.039 251.81 235.506 251.092Z" fill="#7D7B01"/>
<path d="M192.368 268.837C162.416 258.269 137.076 238.516 108.732 224.638C106.448 223.516 108.594 220.204 110.851 221.314C138.89 235.049 163.946 254.637 193.573 265.09C195.971 265.929 194.769 269.692 192.369 268.845L192.368 268.837Z" fill="url(#paint28_linear_26_6204)"/>
</g>
<mask id="mask3_26_6204" style="mask-type:luminance" maskUnits="userSpaceOnUse" x="99" y="78" width="296" height="169">
<path d="M168.235 154.058C169.899 152.807 171.318 151.468 172.591 150.064C173.078 153.901 173.456 157.742 173.765 161.571C173.874 162.981 175.797 163.052 176.327 161.899C179.181 155.726 180.604 148.925 181.427 142.204C181.625 140.551 181.791 138.861 181.899 137.174C183.766 134.782 185.917 132.513 188.616 130.601C189.654 129.865 190.732 129.163 191.831 128.483C192.243 135.33 192.137 142.234 191.821 149.059C191.761 150.468 193.656 150.78 194.325 149.702C197.932 143.94 200.196 137.366 201.858 130.805C202.561 128.003 203.157 125.121 203.562 122.217C205.458 121.3 207.34 120.403 209.182 119.513C223.888 112.386 238.898 105.967 253.455 98.4973C259.243 95.5265 265.204 92.3627 271.354 90.5008C274.751 89.4748 277.859 89.0005 280.895 88.9018C279.475 94.1708 277.781 99.3661 275.97 104.482C275.501 105.817 277.228 106.666 278.179 105.829C283.31 101.359 287.378 95.7199 290.858 89.9151C290.902 89.8393 290.953 89.7539 290.998 89.6781C295.136 90.2865 299.298 90.9324 303.874 90.4813C309.054 89.9741 314.337 88.4205 319.578 87.0432C329.331 84.4782 339.106 81.9004 348.838 80.1556C367.105 76.877 387.117 76.4386 394.335 89.4533C394.464 89.6896 394.445 89.9456 394.321 90.1795C394.308 90.1989 394.303 90.2166 394.292 90.2441C394.176 90.4765 393.961 90.7194 393.601 90.9058C388.559 93.5916 383.51 96.287 378.462 98.9825C355.621 111.16 332.773 123.348 309.926 135.536C279.125 151.957 248.325 168.386 217.524 184.807C190.467 199.236 163.41 213.665 136.353 228.093C124.734 234.287 113.116 240.49 101.503 246.674C100.236 247.353 99.4515 246.417 100.079 245.473C106.151 236.397 110.215 225.752 109.672 216.851C109.241 209.907 104.699 204.217 105.779 196.816C106.918 188.967 115.598 182.584 122.521 176.434C126.653 172.769 130.954 169.063 135.771 166.033C140.077 163.328 144.504 161.651 149.268 160.55C155.401 159.129 162.769 158.138 168.232 154.042L168.235 154.058Z" fill="white"/>
</mask>
<g mask="url(#mask3_26_6204)">
<path d="M168.235 154.058C169.899 152.807 171.318 151.468 172.591 150.064C173.078 153.901 173.456 157.742 173.765 161.571C173.874 162.981 175.797 163.052 176.327 161.899C179.181 155.726 180.604 148.925 181.427 142.204C181.625 140.551 181.791 138.861 181.899 137.174C183.766 134.782 185.917 132.513 188.616 130.601C189.654 129.865 190.732 129.163 191.831 128.483C192.243 135.33 192.137 142.234 191.821 149.059C191.761 150.468 193.656 150.78 194.325 149.702C197.932 143.94 200.196 137.366 201.858 130.805C202.561 128.003 203.157 125.121 203.562 122.217C205.458 121.3 207.34 120.403 209.182 119.513C223.888 112.386 238.898 105.967 253.455 98.4973C259.243 95.5265 265.204 92.3627 271.354 90.5008C274.751 89.4748 277.859 89.0005 280.895 88.9018C279.475 94.1708 277.781 99.3661 275.97 104.482C275.501 105.817 277.228 106.666 278.179 105.829C283.31 101.359 287.378 95.7199 290.858 89.9151C290.902 89.8393 290.953 89.7539 290.998 89.6781C295.136 90.2865 299.298 90.9324 303.874 90.4813C309.054 89.9741 314.337 88.4205 319.578 87.0432C329.331 84.4782 339.106 81.9004 348.838 80.1556C367.105 76.877 387.117 76.4386 394.335 89.4533C394.464 89.6896 394.445 89.9456 394.321 90.1795C394.308 90.1989 394.303 90.2166 394.292 90.2441C394.176 90.4765 393.961 90.7194 393.601 90.9058C388.559 93.5916 383.51 96.287 378.462 98.9825C355.621 111.16 332.773 123.348 309.926 135.536C279.125 151.957 248.325 168.386 217.524 184.807C190.467 199.236 163.41 213.665 136.353 228.093C124.734 234.287 113.116 240.49 101.503 246.674C100.236 247.353 99.4515 246.417 100.079 245.473C106.151 236.397 110.215 225.752 109.672 216.851C109.241 209.907 104.699 204.217 105.779 196.816C106.918 188.967 115.598 182.584 122.521 176.434C126.653 172.769 130.954 169.063 135.771 166.033C140.077 163.328 144.504 161.651 149.268 160.55C155.401 159.129 162.769 158.138 168.232 154.042L168.235 154.058Z" fill="url(#paint29_linear_26_6204)"/>
<path style="mix-blend-mode:multiply" opacity="0.3" d="M337.945 49.2607C327.397 80.7317 313.107 110.761 295.17 138.692C289.219 147.963 303.621 157.169 309.585 147.878C328.267 118.779 343.227 87.2751 354.215 54.4917C357.725 44.0278 341.448 38.8065 337.945 49.2607Z" fill="url(#paint30_linear_26_6204)"/>
<path style="mix-blend-mode:multiply" opacity="0.3" d="M271.264 73.9066C266.188 110.116 251.087 143.927 238.501 177.949C234.668 188.307 250.955 193.492 254.771 183.18C267.919 147.646 283.021 112.648 288.322 74.8388C289.855 63.8932 272.769 63.084 271.255 73.9082L271.264 73.9066Z" fill="url(#paint31_linear_26_6204)"/>
<path d="M245.351 99.1157C233.727 130.102 220.779 160.591 210.286 192.001C209.476 194.419 213.24 195.621 214.041 193.204C224.534 161.794 237.483 131.313 249.107 100.319C250.007 97.9341 246.245 96.7406 245.351 99.1157Z" fill="url(#paint32_linear_26_6204)"/>
<path d="M310.27 51.7903C305.018 88.7992 286.515 121.887 273.639 156.511C273.051 158.104 275.55 158.899 276.14 157.314C289.113 122.452 307.612 89.2054 312.896 51.9294C313.131 50.2438 310.507 50.121 310.27 51.7903Z" fill="url(#paint33_linear_26_6204)"/>
<path d="M238.881 70.3655C232.136 117.471 211.455 160.945 193.149 204.388C192.488 205.953 195.003 206.745 195.649 205.191C214.055 161.519 234.727 117.861 241.499 70.5061C241.742 68.819 239.11 68.6977 238.871 70.3589L238.881 70.3655Z" fill="url(#paint34_linear_26_6204)"/>
<path style="mix-blend-mode:multiply" opacity="0.3" d="M199.178 66.8306C180.049 115.715 170.573 167.607 153.758 217.245C150.221 227.698 166.496 232.911 170.029 222.476C186.833 172.832 196.319 120.946 215.448 72.0616C219.472 61.7775 203.172 56.6111 199.178 66.8306Z" fill="url(#paint35_linear_26_6204)"/>
<path opacity="0.7" d="M143.84 153.22C135.006 180.258 132.075 208.645 125.92 236.317C123.544 246.994 139.797 252.312 142.19 241.548C148.347 213.884 151.276 185.489 160.11 158.451C163.541 147.968 147.262 142.739 143.84 153.22Z" fill="url(#paint36_linear_26_6204)"/>
<path style="mix-blend-mode:multiply" opacity="0.3" d="M168.043 130.129C161.477 164.476 151.801 198.137 145.234 232.485C144.916 234.128 147.422 234.955 147.735 233.288C154.301 198.94 163.978 165.279 170.544 130.931C170.862 129.288 168.357 128.462 168.043 130.129Z" fill="url(#paint37_linear_26_6204)"/>
<path opacity="0.5" d="M126.407 157.475C117.543 187.978 118.829 220.08 113.592 251.204C113.17 253.716 117.118 253.898 117.53 251.421C122.705 220.637 121.388 188.86 130.155 158.688C130.868 156.246 127.112 155.035 126.399 157.477L126.407 157.475Z" fill="url(#paint38_linear_26_6204)"/>
</g>
<path style="mix-blend-mode:multiply" d="M200.334 164.464C204.431 185.967 190.325 206.713 168.822 210.81C147.32 214.907 126.573 200.801 122.476 179.298C118.379 157.796 132.485 137.049 153.988 132.952C175.491 128.855 196.237 142.961 200.334 164.464Z" fill="url(#paint39_radial_26_6204)"/>
<path d="M154.467 142.339C151.879 138.12 152.884 132.795 156.712 130.45C160.54 128.105 165.737 129.631 168.325 133.85C170.912 138.07 173.324 157.571 173.324 157.571C173.324 157.571 157.054 146.558 154.467 142.339Z" fill="url(#paint40_linear_26_6204)"/>
<path d="M149.215 160.136C144.401 158.983 141.352 154.507 142.397 150.142C143.442 145.778 148.198 143.18 153.012 144.333C157.826 145.486 173.324 157.571 173.324 157.571C173.324 157.571 154.029 161.289 149.223 160.135L149.215 160.136Z" fill="url(#paint41_linear_26_6204)"/>
<path d="M158.094 176.436C153.874 179.024 148.549 178.019 146.204 174.191C143.859 170.363 145.377 165.168 149.605 162.578C153.824 159.99 173.325 157.579 173.325 157.579C173.325 157.579 162.313 173.848 158.094 176.436Z" fill="url(#paint42_linear_26_6204)"/>
<path d="M175.889 181.679C174.736 186.494 170.26 189.543 165.895 188.498C161.531 187.453 158.933 182.697 160.086 177.883C161.239 173.068 173.324 157.571 173.324 157.571C173.324 157.571 177.042 176.865 175.889 181.679Z" fill="url(#paint43_linear_26_6204)"/>
<path d="M192.182 172.811C194.77 177.03 193.765 182.355 189.937 184.7C186.109 187.045 180.912 185.519 178.324 181.3C175.737 177.08 173.325 157.579 173.325 157.579C173.325 157.579 189.603 168.59 192.182 172.811Z" fill="url(#paint44_linear_26_6204)"/>
<path d="M197.434 155.014C202.248 156.166 205.297 160.643 204.252 165.007C203.207 169.372 198.451 171.97 193.637 170.817C188.823 169.664 173.325 157.579 173.325 157.579C173.325 157.579 192.62 153.861 197.434 155.014Z" fill="url(#paint45_linear_26_6204)"/>
<path d="M188.555 138.714C192.775 136.126 198.1 137.131 200.445 140.959C202.79 144.787 201.264 149.984 197.044 152.572C192.825 155.16 173.324 157.571 173.324 157.571C173.324 157.571 184.335 141.293 188.555 138.714Z" fill="url(#paint46_linear_26_6204)"/>
<path d="M170.76 133.47C171.913 128.656 176.389 125.607 180.754 126.652C185.118 127.697 187.716 132.453 186.563 137.267C185.41 142.081 173.325 157.579 173.325 157.579C173.325 157.579 169.607 138.285 170.76 133.47Z" fill="url(#paint47_linear_26_6204)"/>
<path d="M175.437 168.663C181.559 167.497 185.576 161.589 184.41 155.467C183.243 149.345 177.335 145.328 171.213 146.495C165.092 147.661 161.075 153.569 162.241 159.691C163.407 165.813 169.315 169.83 175.437 168.663Z" fill="url(#paint48_linear_26_6204)"/>
<path style="mix-blend-mode:multiply" opacity="0.5" d="M177.124 164.446C171.002 165.612 165.095 161.596 163.927 155.465C163.659 154.06 163.672 152.669 163.916 151.344C162.347 153.713 161.665 156.67 162.239 159.683C163.406 165.805 169.313 169.822 175.436 168.655C180.154 167.756 183.61 164.035 184.417 159.572C182.797 162.018 180.231 163.837 177.121 164.429L177.124 164.446Z" fill="url(#paint49_linear_26_6204)"/>
<defs>
<linearGradient id="paint0_linear_26_6204" x1="26.5593" y1="232.17" x2="268.13" y2="136.197" gradientUnits="userSpaceOnUse">
<stop stop-color="#3C6C00"/>
<stop offset="1" stop-color="#90C44D"/>
</linearGradient>
<linearGradient id="paint1_linear_26_6204" x1="188.528" y1="14.9526" x2="200.735" y2="79.022" gradientUnits="userSpaceOnUse">
<stop stop-color="#90C44D"/>
<stop offset="1" stop-color="#3C6C00"/>
</linearGradient>
<linearGradient id="paint2_linear_26_6204" x1="136.499" y1="170.24" x2="254.769" y2="123.253" gradientUnits="userSpaceOnUse">
<stop stop-color="#133C00"/>
<stop offset="0.99" stop-color="#358500"/>
</linearGradient>
<linearGradient id="paint3_linear_26_6204" x1="130.446" y1="202.424" x2="226.076" y2="164.432" gradientUnits="userSpaceOnUse">
<stop stop-color="#133C00"/>
<stop offset="0.99" stop-color="#358500"/>
</linearGradient>
<linearGradient id="paint4_linear_26_6204" x1="197.342" y1="135.107" x2="194.646" y2="120.953" gradientUnits="userSpaceOnUse">
<stop stop-color="#90C44D"/>
<stop offset="1" stop-color="#3C6C00"/>
</linearGradient>
<linearGradient id="paint5_linear_26_6204" x1="172.698" y1="209.017" x2="169.559" y2="192.541" gradientUnits="userSpaceOnUse">
<stop stop-color="#90C44D"/>
<stop offset="1" stop-color="#3C6C00"/>
</linearGradient>
<linearGradient id="paint6_linear_26_6204" x1="152.976" y1="247.722" x2="148.1" y2="222.127" gradientUnits="userSpaceOnUse">
<stop stop-color="#90C44D"/>
<stop offset="1" stop-color="#3C6C00"/>
</linearGradient>
<linearGradient id="paint7_linear_26_6204" x1="80.2949" y1="292.467" x2="172.736" y2="255.742" gradientUnits="userSpaceOnUse">
<stop stop-color="#133C00"/>
<stop offset="0.99" stop-color="#358500"/>
</linearGradient>
<linearGradient id="paint8_linear_26_6204" x1="61.6399" y1="313.328" x2="149.019" y2="278.613" gradientUnits="userSpaceOnUse">
<stop stop-color="#133C00"/>
<stop offset="0.99" stop-color="#358500"/>
</linearGradient>
<linearGradient id="paint9_linear_26_6204" x1="19.0844" y1="225.311" x2="262.921" y2="128.437" gradientUnits="userSpaceOnUse">
<stop stop-color="#90C44D"/>
<stop offset="1" stop-color="#3C6C00"/>
</linearGradient>
<linearGradient id="paint10_linear_26_6204" x1="150.88" y1="86.207" x2="190.19" y2="70.5894" gradientUnits="userSpaceOnUse">
<stop stop-color="#90C44D"/>
<stop offset="1" stop-color="#3C6C00"/>
</linearGradient>
<linearGradient id="paint11_linear_26_6204" x1="121.958" y1="141.878" x2="149.215" y2="131.049" gradientUnits="userSpaceOnUse">
<stop stop-color="#90C44D"/>
<stop offset="1" stop-color="#3C6C00"/>
</linearGradient>
<linearGradient id="paint12_linear_26_6204" x1="108.069" y1="174.196" x2="126.952" y2="166.694" gradientUnits="userSpaceOnUse">
<stop stop-color="#133C00"/>
<stop offset="0.99" stop-color="#358500"/>
</linearGradient>
<linearGradient id="paint13_linear_26_6204" x1="139.718" y1="104.233" x2="156.872" y2="97.4175" gradientUnits="userSpaceOnUse">
<stop stop-color="#133C00"/>
<stop offset="0.99" stop-color="#358500"/>
</linearGradient>
<linearGradient id="paint14_linear_26_6204" x1="92.4657" y1="173.947" x2="112.732" y2="165.895" gradientUnits="userSpaceOnUse">
<stop stop-color="#133C00"/>
<stop offset="0.99" stop-color="#358500"/>
</linearGradient>
<linearGradient id="paint15_linear_26_6204" x1="95.0094" y1="278.576" x2="62.6239" y2="108.602" gradientUnits="userSpaceOnUse">
<stop stop-color="#90C44D"/>
<stop offset="1" stop-color="#3C6C00"/>
</linearGradient>
<linearGradient id="paint16_linear_26_6204" x1="63.6188" y1="264.038" x2="81.1268" y2="257.082" gradientUnits="userSpaceOnUse">
<stop stop-color="#133C00"/>
<stop offset="0.99" stop-color="#358500"/>
</linearGradient>
<linearGradient id="paint17_linear_26_6204" x1="86.3955" y1="291.224" x2="66.573" y2="187.187" gradientUnits="userSpaceOnUse">
<stop stop-color="#90C44D"/>
<stop offset="1" stop-color="#3C6C00"/>
</linearGradient>
<linearGradient id="paint18_linear_26_6204" x1="53.7478" y1="280.074" x2="63.1894" y2="276.323" gradientUnits="userSpaceOnUse">
<stop stop-color="#133C00"/>
<stop offset="0.99" stop-color="#358500"/>
</linearGradient>
<radialGradient id="paint19_radial_26_6204" cx="0" cy="0" r="1" gradientUnits="userSpaceOnUse" gradientTransform="translate(148.838 164.846) rotate(151.053) scale(114.802 55.5273)">
<stop stop-color="#1D7A00"/>
<stop offset="0.19" stop-color="#578100" stop-opacity="0.7"/>
<stop offset="0.43" stop-color="#948900" stop-opacity="0.4"/>
<stop offset="0.65" stop-color="#C08F00" stop-opacity="0.18"/>
<stop offset="0.85" stop-color="#DA9200" stop-opacity="0.05"/>
<stop offset="1" stop-color="#E49400" stop-opacity="0"/>
</radialGradient>
<linearGradient id="paint20_linear_26_6204" x1="119.749" y1="148.685" x2="374.741" y2="199.187" gradientUnits="userSpaceOnUse">
<stop stop-color="#3C6C00"/>
<stop offset="1" stop-color="#90C44D"/>
</linearGradient>
<linearGradient id="paint21_linear_26_6204" x1="334.838" y1="150.02" x2="349.199" y2="114.606" gradientUnits="userSpaceOnUse">
<stop stop-color="#90C44D"/>
<stop offset="1" stop-color="#3C6C00"/>
</linearGradient>
<linearGradient id="paint22_linear_26_6204" x1="245.701" y1="156.329" x2="370.546" y2="181.055" gradientUnits="userSpaceOnUse">
<stop stop-color="#133C00"/>
<stop offset="0.99" stop-color="#358500"/>
</linearGradient>
<linearGradient id="paint23_linear_26_6204" x1="223.156" y1="180.086" x2="324.088" y2="200.076" gradientUnits="userSpaceOnUse">
<stop stop-color="#133C00"/>
<stop offset="0.99" stop-color="#358500"/>
</linearGradient>
<linearGradient id="paint24_linear_26_6204" x1="315.918" y1="159.876" x2="321.333" y2="146.524" gradientUnits="userSpaceOnUse">
<stop stop-color="#90C44D"/>
<stop offset="1" stop-color="#3C6C00"/>
</linearGradient>
<linearGradient id="paint25_linear_26_6204" x1="255.11" y1="208.578" x2="261.41" y2="193.042" gradientUnits="userSpaceOnUse">
<stop stop-color="#90C44D"/>
<stop offset="1" stop-color="#3C6C00"/>
</linearGradient>
<linearGradient id="paint26_linear_26_6204" x1="217.542" y1="230.39" x2="227.33" y2="206.251" gradientUnits="userSpaceOnUse">
<stop stop-color="#90C44D"/>
<stop offset="1" stop-color="#3C6C00"/>
</linearGradient>
<linearGradient id="paint27_linear_26_6204" x1="132.156" y1="228.493" x2="229.73" y2="247.818" gradientUnits="userSpaceOnUse">
<stop stop-color="#133C00"/>
<stop offset="0.99" stop-color="#358500"/>
</linearGradient>
<linearGradient id="paint28_linear_26_6204" x1="105.168" y1="235.881" x2="197.398" y2="254.148" gradientUnits="userSpaceOnUse">
<stop stop-color="#133C00"/>
<stop offset="0.99" stop-color="#358500"/>
</linearGradient>
<linearGradient id="paint29_linear_26_6204" x1="117.195" y1="138.859" x2="374.58" y2="189.834" gradientUnits="userSpaceOnUse">
<stop stop-color="#90C44D"/>
<stop offset="1" stop-color="#3C6C00"/>
</linearGradient>
<linearGradient id="paint30_linear_26_6204" x1="303.395" y1="93.5562" x2="344.888" y2="101.774" gradientUnits="userSpaceOnUse">
<stop stop-color="#90C44D"/>
<stop offset="1" stop-color="#3C6C00"/>
</linearGradient>
<linearGradient id="paint31_linear_26_6204" x1="248.889" y1="124.618" x2="277.659" y2="130.316" gradientUnits="userSpaceOnUse">
<stop stop-color="#90C44D"/>
<stop offset="1" stop-color="#3C6C00"/>
</linearGradient>
<linearGradient id="paint32_linear_26_6204" x1="219.683" y1="144.224" x2="239.615" y2="148.172" gradientUnits="userSpaceOnUse">
<stop stop-color="#133C00"/>
<stop offset="0.99" stop-color="#358500"/>
</linearGradient>
<linearGradient id="paint33_linear_26_6204" x1="284.235" y1="102.646" x2="302.342" y2="106.233" gradientUnits="userSpaceOnUse">
<stop stop-color="#133C00"/>
<stop offset="0.99" stop-color="#358500"/>
</linearGradient>
<linearGradient id="paint34_linear_26_6204" x1="206.705" y1="135.544" x2="228.105" y2="139.782" gradientUnits="userSpaceOnUse">
<stop stop-color="#133C00"/>
<stop offset="0.99" stop-color="#358500"/>
</linearGradient>
<linearGradient id="paint35_linear_26_6204" x1="152.117" y1="224.858" x2="217.139" y2="64.5074" gradientUnits="userSpaceOnUse">
<stop stop-color="#90C44D"/>
<stop offset="1" stop-color="#3C6C00"/>
</linearGradient>
<linearGradient id="paint36_linear_26_6204" x1="133.579" y1="195.564" x2="152.06" y2="199.224" gradientUnits="userSpaceOnUse">
<stop stop-color="#133C00"/>
<stop offset="0.99" stop-color="#358500"/>
</linearGradient>
<linearGradient id="paint37_linear_26_6204" x1="138.011" y1="230.805" x2="177.81" y2="132.659" gradientUnits="userSpaceOnUse">
<stop stop-color="#90C44D"/>
<stop offset="1" stop-color="#3C6C00"/>
</linearGradient>
<linearGradient id="paint38_linear_26_6204" x1="116.585" y1="203.676" x2="126.551" y2="205.65" gradientUnits="userSpaceOnUse">
<stop stop-color="#133C00"/>
<stop offset="0.99" stop-color="#358500"/>
</linearGradient>
<radialGradient id="paint39_radial_26_6204" cx="0" cy="0" r="1" gradientUnits="userSpaceOnUse" gradientTransform="translate(161.405 171.881) rotate(-10.7874) scale(39.6291 39.6291)">
<stop stop-color="#8F551A"/>
<stop offset="0.04" stop-color="#8F551A" stop-opacity="0.94"/>
<stop offset="0.27" stop-color="#8F551A" stop-opacity="0.6"/>
<stop offset="0.49" stop-color="#8F551A" stop-opacity="0.34"/>
<stop offset="0.69" stop-color="#8F551A" stop-opacity="0.15"/>
<stop offset="0.86" stop-color="#8F551A" stop-opacity="0.04"/>
<stop offset="1" stop-color="#8F551A" stop-opacity="0"/>
</radialGradient>
<linearGradient id="paint40_linear_26_6204" x1="161.963" y1="138.491" x2="168.916" y2="151.693" gradientUnits="userSpaceOnUse">
<stop stop-color="white"/>
<stop offset="0.3" stop-color="#FEF5EA"/>
<stop offset="0.73" stop-color="#FDEBD1"/>
<stop offset="1" stop-color="#FDE7C8"/>
</linearGradient>
<linearGradient id="paint41_linear_26_6204" x1="152.037" y1="151.788" x2="166.29" y2="156.204" gradientUnits="userSpaceOnUse">
<stop stop-color="white"/>
<stop offset="0.3" stop-color="#FEF5EA"/>
<stop offset="0.73" stop-color="#FDEBD1"/>
<stop offset="1" stop-color="#FDE7C8"/>
</linearGradient>
<linearGradient id="paint42_linear_26_6204" x1="152.233" y1="169.451" x2="165.436" y2="162.498" gradientUnits="userSpaceOnUse">
<stop stop-color="#FDE7C8"/>
<stop offset="0.27" stop-color="#FDEBD1"/>
<stop offset="0.7" stop-color="#FEF5EA"/>
<stop offset="1" stop-color="white"/>
</linearGradient>
<linearGradient id="paint43_linear_26_6204" x1="166.114" y1="183.958" x2="170.53" y2="169.705" gradientUnits="userSpaceOnUse">
<stop stop-color="white"/>
<stop offset="0.3" stop-color="#FEF5EA"/>
<stop offset="0.73" stop-color="#FDEBD1"/>
<stop offset="1" stop-color="#FDE7C8"/>
</linearGradient>
<linearGradient id="paint44_linear_26_6204" x1="188.235" y1="183.38" x2="181.282" y2="170.178" gradientUnits="userSpaceOnUse">
<stop stop-color="#FDE7C8"/>
<stop offset="0.27" stop-color="#FDEBD1"/>
<stop offset="0.7" stop-color="#FEF5EA"/>
<stop offset="1" stop-color="white"/>
</linearGradient>
<linearGradient id="paint45_linear_26_6204" x1="202.337" y1="164.932" x2="188.088" y2="160.513" gradientUnits="userSpaceOnUse">
<stop stop-color="white"/>
<stop offset="0.3" stop-color="#FEF5EA"/>
<stop offset="0.73" stop-color="#FDEBD1"/>
<stop offset="1" stop-color="#FDE7C8"/>
</linearGradient>
<linearGradient id="paint46_linear_26_6204" x1="197.118" y1="143.179" x2="183.913" y2="150.128" gradientUnits="userSpaceOnUse">
<stop stop-color="white"/>
<stop offset="0.3" stop-color="#FEF5EA"/>
<stop offset="0.73" stop-color="#FDEBD1"/>
<stop offset="1" stop-color="#FDE7C8"/>
</linearGradient>
<linearGradient id="paint47_linear_26_6204" x1="179.25" y1="133.66" x2="174.834" y2="147.913" gradientUnits="userSpaceOnUse">
<stop stop-color="#FDE7C8"/>
<stop offset="0.27" stop-color="#FDEBD1"/>
<stop offset="0.7" stop-color="#FEF5EA"/>
<stop offset="1" stop-color="white"/>
</linearGradient>
<linearGradient id="paint48_linear_26_6204" x1="171.212" y1="146.487" x2="175.437" y2="168.663" gradientUnits="userSpaceOnUse">
<stop stop-color="#FFF25B"/>
<stop offset="0.99" stop-color="#F7C50F"/>
</linearGradient>
<linearGradient id="paint49_linear_26_6204" x1="171.477" y1="149.911" x2="175.064" y2="168.734" gradientUnits="userSpaceOnUse">
<stop stop-color="#FFF25B"/>
<stop offset="0.99" stop-color="#F7C50F"/>
</linearGradient>
</defs>
</svg>
