<svg width="324" height="25" viewBox="0 0 324 25" fill="none" xmlns="http://www.w3.org/2000/svg">
<path d="M0.739807 12.6029V1.01892H28.8998V12.6029H23.7158V5.17892H16.7398V23.8989H11.6198V5.17892H5.92381V12.6029H0.739807Z" fill="black"/>
<path d="M40.5391 24.0589C37.6804 24.0589 35.4511 23.3549 33.8511 21.9469C32.2511 20.5176 31.4511 18.4269 31.4511 15.6749C31.4511 12.9016 32.2511 10.8109 33.8511 9.40292C35.4511 7.97358 37.6804 7.25892 40.5391 7.25892H48.5391C50.4164 7.25892 51.8457 7.70692 52.8271 8.60292C53.8297 9.47758 54.3311 10.7363 54.3311 12.3789C54.3311 15.7283 52.4004 17.4029 48.5391 17.4029H36.4431C36.8911 19.3869 38.2564 20.3789 40.5391 20.3789H53.4991V24.0589H40.5391ZM40.5391 10.9389C38.3417 10.9389 36.9871 11.8669 36.4751 13.7229H48.3151C48.7417 13.7229 49.0724 13.5949 49.3071 13.3389C49.5631 13.0829 49.6911 12.7309 49.6911 12.2829C49.6911 11.3869 49.2324 10.9389 48.3151 10.9389H40.5391Z" fill="black"/>
<path d="M65.6641 24.0589C62.8054 24.0589 60.5761 23.3549 58.9761 21.9469C57.3761 20.5176 56.5761 18.4269 56.5761 15.6749C56.5761 12.9016 57.3761 10.8109 58.9761 9.40292C60.5761 7.97358 62.8054 7.25892 65.6641 7.25892H76.3841V10.9389H65.6641C64.2774 10.9389 63.2107 11.3229 62.4641 12.0909C61.7387 12.8589 61.3761 14.0536 61.3761 15.6749C61.3761 17.2749 61.7387 18.4589 62.4641 19.2269C63.2107 19.9949 64.2774 20.3789 65.6641 20.3789H76.7041V24.0589H65.6641Z" fill="black"/>
<path d="M79.0911 23.8989V1.01892H83.7311V7.41892H93.4591C95.3364 7.41892 96.7017 7.88825 97.5551 8.82692C98.4297 9.74425 98.8671 10.9603 98.8671 12.4749V23.8989H94.2271V13.0189C94.2271 11.7389 93.5871 11.0989 92.3071 11.0989H83.7311V23.8989H79.0911Z" fill="black"/>
<path d="M125.436 24.0589C121.361 24.0589 118.204 23.0883 115.964 21.1469C113.724 19.1842 112.604 16.2829 112.604 12.4429C112.604 8.62425 113.724 5.74425 115.964 3.80292C118.204 1.84025 121.436 0.858917 125.66 0.858917H131.42C135.644 0.858917 138.876 1.84025 141.116 3.80292C143.356 5.74425 144.476 8.62425 144.476 12.4429C144.476 16.2829 143.356 19.1842 141.116 21.1469C138.876 23.0883 135.697 24.0589 131.58 24.0589H125.436ZM126.012 5.01892C123.644 5.01892 121.798 5.44558 120.476 6.29892C119.153 7.15225 118.321 8.50692 117.98 10.3629H139.1C138.758 8.50692 137.926 7.15225 136.604 6.29892C135.281 5.44558 133.436 5.01892 131.068 5.01892H126.012ZM126.108 19.8989H131.068C133.457 19.8989 135.302 19.4723 136.604 18.6189C137.926 17.7656 138.758 16.4003 139.1 14.5229H117.98C118.321 16.4003 119.153 17.7656 120.476 18.6189C121.798 19.4723 123.676 19.8989 126.108 19.8989Z" fill="black"/>
<path d="M147.185 23.8989V7.41892H161.553C163.43 7.41892 164.795 7.88825 165.649 8.82692C166.523 9.74425 166.961 10.9603 166.961 12.4749V23.8989H162.321V13.0189C162.321 11.7389 161.681 11.0989 160.401 11.0989H151.825V23.8989H147.185Z" fill="black"/>
<path d="M174.694 23.8989C172.966 23.8989 171.643 23.4616 170.726 22.5869C169.808 21.7123 169.35 20.4643 169.35 18.8429C169.35 17.2429 169.808 16.0056 170.726 15.1309C171.643 14.2563 172.966 13.8189 174.694 13.8189H186.982V13.0509C186.982 11.7496 186.342 11.0989 185.062 11.0989H171.494V7.41892H186.278C188.219 7.41892 189.595 7.86692 190.406 8.76292C191.216 9.63758 191.622 10.8749 191.622 12.4749V23.8989H174.694ZM175.526 20.2189H186.982V17.4989H175.526C175.12 17.4989 174.8 17.6269 174.566 17.8829C174.352 18.1176 174.246 18.4376 174.246 18.8429C174.246 19.2483 174.352 19.5789 174.566 19.8349C174.8 20.0909 175.12 20.2189 175.526 20.2189Z" fill="black"/>
<path d="M195.154 23.8989V7.41892H216.498C218.375 7.41892 219.751 7.88825 220.626 8.82692C221.5 9.74425 221.938 10.9603 221.938 12.4749V23.8989H217.298V13.0509C217.298 11.7496 216.636 11.0989 215.314 11.0989H210.866V23.8989H206.226V11.0989H199.794V23.8989H195.154Z" fill="black"/>
<path d="M236.977 23.8989V1.01892H242.161L258.353 17.4669V1.01892H263.473V23.8989H258.289L242.097 7.41892V23.8989H236.977Z" fill="black"/>
<path d="M267.946 23.8989V1.01892H292.394V5.17892H273.066V11.5149H289.898V15.6749H273.066V23.8989H267.946Z" fill="black"/>
<path d="M295.115 12.6029V1.01892H323.275V12.6029H318.091V5.17892H311.115V23.8989H305.995V5.17892H300.299V12.6029H295.115Z" fill="black"/>
</svg>
